<svg xmlns="http://www.w3.org/2000/svg" viewBox="0 0 511.84 391.88"><defs><style>.cls-1{fill:#fc6e51;}.cls-2{opacity:0.3;}.cls-3{fill:#fff;}.cls-4{opacity:0.7;}.cls-5{fill:#a0d468;}.cls-6{opacity:0.2;}.cls-7{opacity:0.5;}.cls-8{fill:#ed5565;}.cls-9{fill:#ffd2a6;}.cls-10{opacity:0.1;}.cls-11{fill:#656d78;}.cls-12{fill:#3a3847;}</style></defs><title>basket</title><g id="Layer_2" data-name="Layer 2"><g id="Capa_1" data-name="Capa 1"><path class="cls-1" d="M402.3,108.15a45,45,0,0,0-63.71,0,628.41,628.41,0,0,0-55,63.87h0v7.91H402.31v-8.06A45.06,45.06,0,0,0,402.3,108.15Z"/><g class="cls-2"><path class="cls-3" d="M307.55,172a628.62,628.62,0,0,1,55-63.87,44.63,44.63,0,0,1,19.86-11.37,44.87,44.87,0,0,0-43.85,11.37,628.41,628.41,0,0,0-55,63.87h24Z"/></g><g class="cls-4"><path class="cls-5" d="M388.28,122.18c13.64,13.65,27,16.18,27.15,16.21A44.88,44.88,0,0,0,372.07,95C372.11,95.25,374.65,108.55,388.28,122.18Z"/></g><path class="cls-5" d="M283.91,115.46c0,8.56-29.37,15.5-36,15.5s-12-6.94-12-15.5,5.37-15.49,12-15.49S283.91,106.9,283.91,115.46Z"/><g class="cls-6"><path d="M247.92,100a9.43,9.43,0,0,0-3,.56c10.62,1.8,31,7.79,31,14.93s-20.41,13.14-31,14.93a9.46,9.46,0,0,0,3,.56c6.62,0,36-6.94,36-15.5S254.55,100,247.92,100Z"/></g><g class="cls-7"><path class="cls-3" d="M243.93,115.46c0-7.19,3.82-13.19,9-14.93a33.46,33.46,0,0,0-5-.56c-6.62,0-12,6.94-12,15.49s5.37,15.5,12,15.5a33.34,33.34,0,0,0,5-.56C247.74,128.66,243.93,122.66,243.93,115.46Z"/></g><path class="cls-8" d="M205.86,131.25l-.06-.08c-6.9-25.49-40.68-64.6-91.5-13.76C96.86,134.83,91,154.55,92.11,171.95v8H244.24v-8C242.22,149.8,221.48,135.47,205.86,131.25Z"/><rect class="cls-9" x="435.86" y="139.96" width="63.98" height="247.92"/><g class="cls-10"><rect x="435.86" y="139.96" width="63.98" height="247.92"/></g><g class="cls-6"><rect x="435.86" y="171.95" width="63.98" height="8"/></g><g class="cls-6"><rect x="435.86" y="371.88" width="63.98" height="8"/></g><rect class="cls-9" x="12" y="139.96" width="63.98" height="247.92"/><g class="cls-10"><rect x="12" y="139.96" width="63.98" height="247.92"/></g><rect class="cls-9" x="4" y="179.94" width="503.84" height="95.97"/><rect class="cls-9" x="4" y="275.92" width="503.84" height="95.97"/><g class="cls-6"><rect x="12" y="171.95" width="63.98" height="8"/></g><g class="cls-6"><rect x="12" y="371.88" width="63.98" height="8"/></g><g class="cls-7"><rect class="cls-3" x="4" y="179.94" width="503.84" height="8"/></g><g class="cls-6"><rect x="4" y="267.92" width="503.84" height="8"/></g><g class="cls-7"><rect class="cls-3" x="4" y="275.92" width="503.84" height="8"/></g><g class="cls-6"><rect x="4" y="363.89" width="503.84" height="8"/></g><path class="cls-11" d="M52,227.93a8,8,0,1,1-8-8A8,8,0,0,1,52,227.93Z"/><g class="cls-7"><path class="cls-3" d="M44,227.93a7.87,7.87,0,0,1,4-6.77,7.76,7.76,0,0,0-4-1.23,8,8,0,0,0,0,16,7.77,7.77,0,0,0,4-1.23A7.88,7.88,0,0,1,44,227.93Z"/></g><path class="cls-11" d="M52,323.9a8,8,0,1,1-8-8A8,8,0,0,1,52,323.9Z"/><g class="cls-7"><path class="cls-3" d="M44,323.9a7.88,7.88,0,0,1,4-6.77,7.77,7.77,0,0,0-4-1.23,8,8,0,0,0,0,16,7.76,7.76,0,0,0,4-1.23A7.88,7.88,0,0,1,44,323.9Z"/></g><path class="cls-11" d="M475.85,227.93a8,8,0,1,1-8-8A8,8,0,0,1,475.85,227.93Z"/><g class="cls-7"><path class="cls-3" d="M467.86,227.93a7.88,7.88,0,0,1,4-6.77,7.77,7.77,0,0,0-4-1.23,8,8,0,0,0,0,16,7.78,7.78,0,0,0,4-1.23A7.88,7.88,0,0,1,467.86,227.93Z"/></g><path class="cls-11" d="M475.85,323.9a8,8,0,1,1-8-8A8,8,0,0,1,475.85,323.9Z"/><g class="cls-7"><path class="cls-3" d="M467.86,323.9a7.88,7.88,0,0,1,4-6.77,7.78,7.78,0,0,0-4-1.23,8,8,0,0,0,0,16,7.77,7.77,0,0,0,4-1.23A7.88,7.88,0,0,1,467.86,323.9Z"/></g><g class="cls-7"><rect class="cls-3" x="12" y="139.96" width="8" height="31.99"/></g><g class="cls-6"><rect x="67.98" y="139.96" width="8" height="31.99"/></g><g class="cls-7"><rect class="cls-3" x="12" y="379.88" width="8" height="8"/></g><g class="cls-6"><rect x="67.98" y="379.88" width="8" height="8"/></g><g class="cls-7"><rect class="cls-3" x="435.86" y="379.88" width="8" height="8"/></g><g class="cls-6"><rect x="491.85" y="379.88" width="8" height="8"/></g><g class="cls-7"><rect class="cls-3" x="435.86" y="139.96" width="8" height="31.99"/></g><g class="cls-6"><rect x="491.85" y="139.96" width="8" height="31.99"/></g><path class="cls-12" d="M283.56,176a4,4,0,0,1-3.19-6.41,630.51,630.51,0,0,1,55.4-64.28,49,49,0,1,1,69.36,69.37,4,4,0,1,1-5.65-5.65A41.05,41.05,0,1,0,341.43,111a623.12,623.12,0,0,0-54.68,63.45A4,4,0,0,1,283.56,176Z"/><path class="cls-12" d="M390.93,91.67a4,4,0,0,1-2.83-6.83l36.63-36.63a4,4,0,1,1,5.65,5.65L393.76,90.5A4,4,0,0,1,390.93,91.67Z"/><path class="cls-12" d="M406.87,97A4,4,0,0,1,404,90.16l89-89a4,4,0,1,1,5.65,5.65l-89,89A4,4,0,0,1,406.87,97Z"/><path class="cls-12" d="M417.49,107.61a4,4,0,0,1-2.83-6.83l50-50a4,4,0,1,1,5.65,5.65l-50,50A4,4,0,0,1,417.49,107.61Z"/><path class="cls-12" d="M364.38,150.08a4.05,4.05,0,0,1-2.06-.57c-16-9.64-17.67-17.43-17.85-18.9a4,4,0,0,1,3.52-4.43,4,4,0,0,1,4.4,3.34c.11.38,1.79,5.77,14,13.14a4,4,0,0,1-2.06,7.43Z"/><path class="cls-12" d="M422.8,123.53a4,4,0,0,1-2.83-6.83l20.64-20.63a4,4,0,0,1,5.65,5.65l-20.64,20.63A4,4,0,0,1,422.8,123.53Z"/><path class="cls-12" d="M415.47,142.41a4.62,4.62,0,0,1-.73-.06c-.59-.12-14.83-2.87-29.28-17.32s-17.21-28.69-17.32-29.29A4,4,0,0,1,376,94.27c.07.35,2.65,12.63,15.11,25.09s25,15.09,25.1,15.11a4,4,0,0,1-.74,7.93Z"/><g class="cls-2"><path class="cls-3" d="M92.11,172h16c.89-15.31,7.32-31.8,22.16-46.63,22.33-22.33,41.36-27.3,56.27-23.7-16.07-12.78-40.92-15.66-72.27,15.7C96.86,134.83,91,154.55,92.11,171.95V172Z"/></g><g class="cls-6"><rect x="92.11" y="171.95" width="152.12" height="8"/></g><g class="cls-6"><rect x="283.55" y="171.88" width="118.75" height="8.06"/></g><path class="cls-12" d="M507.84,279.91H4a4,4,0,0,1-4-4v-96a4,4,0,0,1,4-4H507.84a4,4,0,0,1,4,4v96A4,4,0,0,1,507.84,279.91ZM8,271.92H503.84v-88H8Z"/><path class="cls-12" d="M507.84,375.88H4a4,4,0,0,1-4-4v-96a4,4,0,0,1,4-4H507.84a4,4,0,0,1,4,4v96A4,4,0,0,1,507.84,375.88ZM8,367.89H503.84v-88H8Z"/><path class="cls-12" d="M12,175.95a4,4,0,0,1-4-4V140a4,4,0,1,1,8,0v32A4,4,0,0,1,12,175.95Z"/><path class="cls-12" d="M76,144H12a4,4,0,1,1,0-8H76a4,4,0,0,1,0,8Z"/><path class="cls-12" d="M76,175.95a4,4,0,0,1-4-4V140a4,4,0,1,1,8,0v32A4,4,0,0,1,76,175.95Z"/><path class="cls-12" d="M76,391.88a4,4,0,0,1-4-4v-8a4,4,0,1,1,8,0v8A4,4,0,0,1,76,391.88Z"/><path class="cls-12" d="M76,391.88H12a4,4,0,1,1,0-8H76a4,4,0,0,1,0,8Z"/><path class="cls-12" d="M12,391.88a4,4,0,0,1-4-4v-8a4,4,0,1,1,8,0v8A4,4,0,0,1,12,391.88Z"/><path class="cls-12" d="M435.86,175.95a4,4,0,0,1-4-4V140a4,4,0,0,1,8,0v32A4,4,0,0,1,435.86,175.95Z"/><path class="cls-12" d="M499.85,144h-64a4,4,0,0,1,0-8h64a4,4,0,1,1,0,8Z"/><path class="cls-12" d="M499.85,175.95a4,4,0,0,1-4-4V140a4,4,0,0,1,8,0v32A4,4,0,0,1,499.85,175.95Z"/><path class="cls-12" d="M499.85,391.88a4,4,0,0,1-4-4v-8a4,4,0,0,1,8,0v8A4,4,0,0,1,499.85,391.88Z"/><path class="cls-12" d="M499.85,391.88h-64a4,4,0,0,1,0-8h64a4,4,0,1,1,0,8Z"/><path class="cls-12" d="M435.86,391.88a4,4,0,0,1-4-4v-8a4,4,0,0,1,8,0v8A4,4,0,0,1,435.86,391.88Z"/><path class="cls-12" d="M44,239.93a12,12,0,1,1,12-12A12,12,0,0,1,44,239.93Zm0-16a4,4,0,1,0,4,4A4,4,0,0,0,44,223.93Z"/><path class="cls-12" d="M467.86,239.93a12,12,0,1,1,12-12A12,12,0,0,1,467.86,239.93Zm0-16a4,4,0,1,0,4,4A4,4,0,0,0,467.86,223.93Z"/><path class="cls-12" d="M44,335.9a12,12,0,1,1,12-12A12,12,0,0,1,44,335.9Zm0-16a4,4,0,1,0,4,4A4,4,0,0,0,44,319.9Z"/><path class="cls-12" d="M467.86,335.9a12,12,0,1,1,12-12A12,12,0,0,1,467.86,335.9Zm0-16a4,4,0,1,0,4,4A4,4,0,0,0,467.86,319.9Z"/><path class="cls-12" d="M92.11,175.95a4,4,0,0,1-4-3.73C86.74,151.47,95,131,111.47,114.58c26.61-26.61,47.86-28,61-24.52,19.61,5.23,32.81,23.89,37.19,40.07a4,4,0,0,1-7.72,2.09c-3.66-13.51-15.09-30-31.53-34.43-15.93-4.26-34.36,3.51-53.28,22.45-14.78,14.76-22.24,33-21,51.44a4,4,0,0,1-3.73,4.26Z"/><path class="cls-12" d="M244.23,175.95a4,4,0,0,1-4-3.64c-1.89-20.78-22.23-33.63-35.44-37.2a4,4,0,1,1,2.09-7.72c18.42,5,39.2,20.92,41.32,44.2a4,4,0,0,1-3.62,4.34Z"/><path class="cls-12" d="M216,124.8a4,4,0,0,1-2.67-7c21.12-19,14.1-38.68,13.79-39.51a4,4,0,0,1,7.47-2.86c.4,1,9.44,25.55-15.92,48.32A4,4,0,0,1,216,124.8Z"/><path class="cls-12" d="M247.92,135c-8.82,0-16-8.75-16-19.49S239.1,96,247.92,96c4.83,0,40,6,40,19.49S252.75,135,247.92,135Zm0-31c-4.34,0-8,5.26-8,11.5s3.66,11.5,8,11.5c7.84,0,31.21-7.28,32-11.53C279.13,111.25,255.76,104,247.92,104Z"/><path class="cls-12" d="M12,279.91a4.12,4.12,0,0,1-2.8-1.12A4,4,0,0,1,8,275.91,3.8,3.8,0,0,1,9.2,273a4.09,4.09,0,0,1,5.6.08,3.78,3.78,0,0,1,1.2,2.8,4,4,0,0,1-1.12,2.8A4.19,4.19,0,0,1,12,279.91Z"/><path class="cls-12" d="M76,279.91a4.12,4.12,0,0,1-2.8-1.12,4,4,0,0,1-1.2-2.87,3.77,3.77,0,0,1,1.2-2.8,4,4,0,0,1,5.6,0,3.79,3.79,0,0,1,1.2,2.8,3.75,3.75,0,0,1-1.2,2.8A3.86,3.86,0,0,1,76,279.91Z"/><path class="cls-12" d="M435.86,279.91a4.29,4.29,0,0,1-2.8-1.12,4.19,4.19,0,0,1-1.2-2.87,3.78,3.78,0,0,1,1.2-2.8,3.94,3.94,0,0,1,5.6,0,3.76,3.76,0,0,1,1.2,2.8,4.1,4.1,0,0,1-1.12,2.8A4.17,4.17,0,0,1,435.86,279.91Z"/><path class="cls-12" d="M499.85,279.91a4.14,4.14,0,0,1-2.8-1.12,4.19,4.19,0,0,1-1.2-2.87,3.78,3.78,0,0,1,1.2-2.8,4,4,0,0,1,5.6,0,3.76,3.76,0,0,1,1.2,2.8,4.1,4.1,0,0,1-1.12,2.8A4.17,4.17,0,0,1,499.85,279.91Z"/></g></g></svg>