<svg xmlns="http://www.w3.org/2000/svg" viewBox="0 0 900.18 255.92"><defs><style>.cls-1{fill:#ffd2a6;}.cls-2{opacity:0.1;}.cls-3{opacity:0.2;}.cls-4{opacity:0.5;}.cls-5{fill:#fff;}.cls-6{fill:#656d78;}.cls-7{fill:#3a3847;}</style></defs><title>bascket_long</title><g id="Layer_2" data-name="Layer 2"><g id="Capa_1" data-name="Capa 1"><rect class="cls-1" x="824.19" y="4" width="63.98" height="247.92"/><g class="cls-2"><rect x="824.19" y="4" width="63.98" height="247.92"/></g><g class="cls-3"><rect x="824.19" y="35.99" width="63.98" height="8"/></g><g class="cls-3"><rect x="824.19" y="235.92" width="63.98" height="8"/></g><rect class="cls-1" x="14.33" y="4" width="63.98" height="247.92"/><g class="cls-2"><rect x="14.33" y="4" width="63.98" height="247.92"/></g><rect class="cls-1" x="7.03" y="43.98" width="886.1" height="95.97"/><rect class="cls-1" x="7.03" y="139.96" width="886.1" height="95.97"/><g class="cls-3"><rect x="14.33" y="35.99" width="63.98" height="8"/></g><g class="cls-3"><rect x="13.33" y="235.92" width="63.98" height="8"/></g><g class="cls-4"><rect class="cls-5" x="7.03" y="43.98" width="886.1" height="8"/></g><g class="cls-3"><rect x="7.03" y="131.96" width="886.1" height="8"/></g><g class="cls-4"><rect class="cls-5" x="7.03" y="139.96" width="886.1" height="8"/></g><g class="cls-3"><rect x="7.03" y="227.93" width="886.1" height="8"/></g><path class="cls-6" d="M864.19,92a8,8,0,1,1-8-8A8,8,0,0,1,864.19,92Z"/><g class="cls-4"><path class="cls-5" d="M856.19,92a7.88,7.88,0,0,1,4-6.77,7.77,7.77,0,0,0-4-1.23,8,8,0,0,0,0,16,7.78,7.78,0,0,0,4-1.23A7.88,7.88,0,0,1,856.19,92Z"/></g><path class="cls-6" d="M864.19,187.94a8,8,0,1,1-8-8A8,8,0,0,1,864.19,187.94Z"/><g class="cls-4"><path class="cls-5" d="M856.19,187.94a7.88,7.88,0,0,1,4-6.77,7.78,7.78,0,0,0-4-1.23,8,8,0,1,0,0,16,7.77,7.77,0,0,0,4-1.23A7.88,7.88,0,0,1,856.19,187.94Z"/></g><g class="cls-4"><rect class="cls-5" x="14.33" y="4" width="8" height="31.99"/></g><g class="cls-3"><rect x="70.31" y="4" width="8" height="31.99"/></g><g class="cls-4"><rect class="cls-5" x="13.33" y="243.92" width="8" height="8"/></g><g class="cls-3"><rect x="69.31" y="243.92" width="8" height="8"/></g><g class="cls-4"><rect class="cls-5" x="824.19" y="243.92" width="8" height="8"/></g><g class="cls-3"><rect x="880.18" y="243.92" width="8" height="8"/></g><g class="cls-4"><rect class="cls-5" x="824.19" y="4" width="8" height="31.99"/></g><g class="cls-3"><rect x="880.18" y="4" width="8" height="31.99"/></g><path class="cls-7" d="M893.14,144H7c-3.89,0-7-1.79-7-4V44c0-2.21,3.15-4,7-4H893.14c3.89,0,7,1.79,7,4v96C900.18,142.17,897,144,893.14,144ZM14.07,136h872V48h-872Z"/><path class="cls-7" d="M893.14,239.93H7c-3.89,0-7-1.79-7-4V140c0-2.21,3.15-4,7-4H893.14c3.89,0,7,1.79,7,4v96C900.18,238.14,897,239.93,893.14,239.93Zm-879.08-8h872V144h-872Z"/><path class="cls-7" d="M14.33,40a4,4,0,0,1-4-4V4a4,4,0,1,1,8,0V36A4,4,0,0,1,14.33,40Z"/><path class="cls-7" d="M78.31,8h-64a4,4,0,1,1,0-8h64a4,4,0,0,1,0,8Z"/><path class="cls-7" d="M78.31,40a4,4,0,0,1-4-4V4a4,4,0,1,1,8,0V36A4,4,0,0,1,78.31,40Z"/><path class="cls-7" d="M77.31,255.92a4,4,0,0,1-4-4v-8a4,4,0,1,1,8,0v8A4,4,0,0,1,77.31,255.92Z"/><path class="cls-7" d="M77.31,255.92h-64a4,4,0,1,1,0-8h64a4,4,0,0,1,0,8Z"/><path class="cls-7" d="M13.33,255.92a4,4,0,0,1-4-4v-8a4,4,0,1,1,8,0v8A4,4,0,0,1,13.33,255.92Z"/><path class="cls-7" d="M824.2,40a4,4,0,0,1-4-4V4a4,4,0,0,1,8,0V36A4,4,0,0,1,824.2,40Z"/><path class="cls-7" d="M888.18,8h-64a4,4,0,0,1,0-8h64a4,4,0,1,1,0,8Z"/><path class="cls-7" d="M888.18,40a4,4,0,0,1-4-4V4a4,4,0,0,1,8,0V36A4,4,0,0,1,888.18,40Z"/><path class="cls-7" d="M888.18,255.92a4,4,0,0,1-4-4v-8a4,4,0,0,1,8,0v8A4,4,0,0,1,888.18,255.92Z"/><path class="cls-7" d="M888.18,255.92h-64a4,4,0,0,1,0-8h64a4,4,0,1,1,0,8Z"/><path class="cls-7" d="M824.2,255.92a4,4,0,0,1-4-4v-8a4,4,0,0,1,8,0v8A4,4,0,0,1,824.2,255.92Z"/><path class="cls-6" d="M52.32,92a8,8,0,1,1-8-8A8,8,0,0,1,52.32,92Z"/><g class="cls-4"><path class="cls-5" d="M44.32,92a7.87,7.87,0,0,1,4-6.77,7.76,7.76,0,0,0-4-1.23,8,8,0,0,0,0,16,7.77,7.77,0,0,0,4-1.23A7.88,7.88,0,0,1,44.32,92Z"/></g><path class="cls-7" d="M44.32,104a12,12,0,1,1,12-12A12,12,0,0,1,44.32,104Zm0-16a4,4,0,1,0,4,4A4,4,0,0,0,44.32,88Z"/><path class="cls-7" d="M856.19,104a12,12,0,1,1,12-12A12,12,0,0,1,856.19,104Zm0-16a4,4,0,1,0,4,4A4,4,0,0,0,856.19,88Z"/><path class="cls-6" d="M52.32,187.94a8,8,0,1,1-8-8A8,8,0,0,1,52.32,187.94Z"/><g class="cls-4"><path class="cls-5" d="M44.32,187.94a7.88,7.88,0,0,1,4-6.77,7.77,7.77,0,0,0-4-1.23,8,8,0,0,0,0,16,7.76,7.76,0,0,0,4-1.23A7.88,7.88,0,0,1,44.32,187.94Z"/></g><path class="cls-7" d="M44.32,199.94a12,12,0,1,1,12-12A12,12,0,0,1,44.32,199.94Zm0-16a4,4,0,1,0,4,4A4,4,0,0,0,44.32,183.94Z"/><path class="cls-7" d="M856.19,199.94a12,12,0,1,1,12-12A12,12,0,0,1,856.19,199.94Zm0-16a4,4,0,1,0,4,4A4,4,0,0,0,856.19,183.94Z"/><path class="cls-7" d="M400.33,144a4.12,4.12,0,0,1-2.8-1.12,4,4,0,0,1-1.2-2.87,3.8,3.8,0,0,1,1.2-2.88,4.09,4.09,0,0,1,5.6.08,3.78,3.78,0,0,1,1.2,2.8,4,4,0,0,1-1.12,2.8A4.19,4.19,0,0,1,400.33,144Z"/><path class="cls-7" d="M464.31,144a4.12,4.12,0,0,1-2.8-1.12,4,4,0,0,1-1.2-2.87,3.77,3.77,0,0,1,1.2-2.8,4,4,0,0,1,5.6,0,3.79,3.79,0,0,1,1.2,2.8,3.75,3.75,0,0,1-1.2,2.8A3.86,3.86,0,0,1,464.31,144Z"/><path class="cls-7" d="M824.2,144a4.29,4.29,0,0,1-2.8-1.12,4.19,4.19,0,0,1-1.2-2.87,3.78,3.78,0,0,1,1.2-2.8,3.94,3.94,0,0,1,5.6,0,3.76,3.76,0,0,1,1.2,2.8,4.1,4.1,0,0,1-1.12,2.8A4.17,4.17,0,0,1,824.2,144Z"/><path class="cls-7" d="M888.18,144a4.14,4.14,0,0,1-2.8-1.12,4.19,4.19,0,0,1-1.2-2.87,3.78,3.78,0,0,1,1.2-2.8,4,4,0,0,1,5.6,0,3.76,3.76,0,0,1,1.2,2.8,4.1,4.1,0,0,1-1.12,2.8A4.17,4.17,0,0,1,888.18,144Z"/></g></g></svg>