<svg xmlns="http://www.w3.org/2000/svg" xmlns:xlink="http://www.w3.org/1999/xlink" viewBox="0 0 900.18 378.31">
    <defs>
        <style>.cls-1{fill:none;}.cls-2{fill:#6daf44;}.cls-3{fill:#609e3e;}.cls-4{fill:#87c558;}.cls-5{fill:#528a34;}.cls-6{fill:#60266c;}.cls-7{fill:#572262;}.cls-8{fill:#8f3894;}.cls-9{fill:#37b34a;}.cls-10{fill:#31a444;}.cls-11{fill:#ffecd2;}.cls-12{fill:#ebd4b8;}.cls-13{fill:#eee4b8;}.cls-14{fill:#c6b59e;}.cls-15{fill:#fff;}.cls-16{clip-path:url(#clip-path);}.cls-17{fill:#9d8f7f;}.cls-18{fill:#faae5b;}.cls-19{fill:#fdcc95;}.cls-20{fill:#f8a045;}.cls-21{fill:#e1923f;}.cls-22{fill:#e12727;}.cls-23{fill:#e55d42;}.cls-24{fill:#cc2322;}.cls-25{fill:#00873e;}.cls-26{fill:#007b38;}.cls-27{fill:#dd1f3b;}.cls-28{fill:#e25a56;}.cls-29{fill:#c91a35;}.cls-30{fill:#308037;}.cls-31{fill:#dccdb8;}.cls-32{fill:#3c9240;}.cls-33{fill:#c32120;}.cls-34{fill:#ffd2a6;}.cls-35{opacity:0.1;}.cls-36{opacity:0.2;}.cls-37{opacity:0.5;}.cls-38{fill:#656d78;}.cls-39{fill:#3a3847;}</style>
    </defs>
    <g id="baket" data-name="Layer 2">
        <g id="Capa_1" data-name="Capa 1">
            <g id="cucumber" data-name="Layer 2">
                <g id="Layer_1-2" data-name="Layer 1-2">
                    <path class="cls-2" d="M244.53,55.31c3.85-7.71,10.14-13.22,19.85-11.58,16.76,2.72,26.2,20.72,30.88,34.81A221,221,0,0,1,305.88,151c-1,30.58-7.28,62.2-28.91,86.36-9.79,11-31.73,23-45.56,9.28-7.69-7.6-9.56-20.48-5.07-34.42,3.54-11,8.63-21.54,11.47-32.54,3-11.87,5.8-23.63,6.07-35.85.35-16-1.31-31.89-2.84-47.8C239.73,82.4,238,68.27,244.53,55.31Z" />
                    <path class="cls-3" d="M264.38,43.74a16.34,16.34,0,0,0-13.64,3.42c9.2-2,15.87,2.4,23.81,14.34,31.22,47,14.35,209.38-45,183.06a22.48,22.48,0,0,0,1.82,2.07c13.89,13.71,35.79,1.67,45.56-9.28,21.59-24.18,27.95-55.78,28.91-86.36a221,221,0,0,0-10.61-72.46C290.58,64.43,281.12,46.43,264.38,43.74Z" />
                    <path class="cls-4" d="M263.17,192.49c-1-4.55-4.39-7.63-10.28-5.92-10.4,3.1-19.38,25.53-19.51,35-.12,8.85,6.11,14.24,13.82,9.28C260.49,222.37,265.59,204,263.17,192.49Z" />
                    <circle class="cls-4" cx="288.78" cy="118.25" r="2.61" transform="translate(140.48 392.81) rotate(-83.89)" />
                    <circle class="cls-4" cx="253.09" cy="135.41" r="2.61" transform="translate(91.53 372.66) rotate(-83.89)" />
                    <circle class="cls-4" cx="259.35" cy="52.37" r="2.61" transform="translate(179.69 304.68) rotate(-83.89)" />
                    <circle class="cls-4" cx="272.26" cy="74.83" r="2.61" transform="translate(168.88 337.59) rotate(-83.89)" />
                    <circle class="cls-4" cx="292.23" cy="85.89" r="2.61" transform="matrix(0.11, -0.99, 0.99, 0.11, 175.74, 367.32)" />
                    <circle class="cls-4" cx="281.28" cy="191.26" r="2.61" transform="translate(61.09 450.52) rotate(-83.87)" />
                    <circle class="cls-4" cx="263.73" cy="106.21" r="2.61" transform="translate(129.98 357.1) rotate(-83.87)" />
                    <circle class="cls-4" cx="299.23" cy="166.12" r="2.61" transform="translate(102.22 445.98) rotate(-83.89)" />
                    <circle class="cls-4" cx="283.86" cy="213.19" r="2.61" transform="translate(41.68 472.75) rotate(-83.89)" />
                    <circle class="cls-4" cx="262.85" cy="233.38" r="2.61" transform="translate(2.83 469.91) rotate(-83.89)" />
                    <circle class="cls-4" cx="257.35" cy="164.26" r="2.61" transform="translate(66.65 402.68) rotate(-83.89)" />
                    <circle class="cls-4" cx="245.17" cy="184.88" r="2.61" transform="translate(35.25 408.99) rotate(-83.89)" />
                    <circle class="cls-4" cx="275.72" cy="150.45" r="2.61" transform="translate(96.79 408.6) rotate(-83.89)" />
                    <circle class="cls-4" cx="248.64" cy="78.6" r="2.61" transform="matrix(0.11, -0.99, 0.99, 0.11, 144.03, 317.47)" />
                    <path class="cls-5" d="M250.75,47.19l-.29.17a5.22,5.22,0,0,0-.79.69,9,9,0,0,0-1.82,3.42c-1,3.28-1.34,8.37-1,14.76s1.17,14.14,2.22,23,2.27,18.82,3.15,29.83,1.35,22.9-.17,35.48-5.82,25.29-11.06,38c-2.6,6.36-5.43,12.74-8,19.31s-5.09,13.36-5.6,20.57A23,23,0,0,0,229,243c.39.8.63,1.77,1.45,2.14a11.62,11.62,0,0,0,2.49,1,29,29,0,0,0,5.33,1,41.19,41.19,0,0,0,21.3-3.61,47.29,47.29,0,0,0,16.93-13.52,72.92,72.92,0,0,0,10.64-18.82c5.28-13.44,7.58-27.56,8.8-41.2a302,302,0,0,0,1.24-39.52A210.62,210.62,0,0,0,293,95.37,117.68,117.68,0,0,0,283.52,67c-4-7.95-8.86-14.27-14-18a21,21,0,0,0-7.63-3.67,14.07,14.07,0,0,0-10,1.22C251.14,46.94,250.75,47.19,250.75,47.19Zm0-.05,1.16-.67a14.16,14.16,0,0,1,9.94-1.24,21.13,21.13,0,0,1,7.7,3.65c5.25,3.76,10.15,10.09,14.21,18a118.16,118.16,0,0,1,9.71,28.35,197.38,197.38,0,0,1,4.24,35.24,302.69,302.69,0,0,1-1.26,39.58c-1.25,13.66-3.54,27.86-8.88,41.34a73.4,73.4,0,0,1-10.78,18.91,47.7,47.7,0,0,1-17.12,13.58,41.51,41.51,0,0,1-21.49,3.57,29.23,29.23,0,0,1-5.36-1.08,11.86,11.86,0,0,1-2.54-1.06,2.05,2.05,0,0,1-1-1,10.06,10.06,0,0,1-.57-1.24,23.18,23.18,0,0,1-1.55-10.7c.57-7.24,3.06-14.06,5.59-20.65s5.39-13,8-19.35c5.17-12.7,9.33-25.42,10.88-37.91a142.91,142.91,0,0,0,.92-18.28c0-5.91-.32-11.65-.71-17.11-.79-11-2-21-3-29.83s-1.81-16.57-2.11-23,0-11.5,1.07-14.82A9,9,0,0,1,249.66,48a5.26,5.26,0,0,1,.79-.69Z" />
                    <path class="cls-5" d="M250.76,47.18c.61,8.5,1.78,17,3.18,25.4.71,4.21,1.47,8.41,2.34,12.59l2.6,12.51A218.24,218.24,0,0,1,262.67,123c.38,4.26.52,8.53.54,12.8,0,2.13-.07,4.27-.1,6.42l-.34,6.39c-.38,4.25-.77,8.52-1.56,12.73a125.41,125.41,0,0,1-2.84,12.52,162.85,162.85,0,0,1-9,24c-3.61,7.74-7.68,15.25-11.61,22.84-2,3.79-3.91,7.59-5.56,11.49a42.85,42.85,0,0,0-2,6,16.33,16.33,0,0,0-.45,6.29l-.09-.15a34.62,34.62,0,0,0,15.21-.31,38.28,38.28,0,0,0,13.81-6.52,49.35,49.35,0,0,0,10.59-11.06,75.08,75.08,0,0,0,7.46-13.4,116.27,116.27,0,0,0,5-14.57,153,153,0,0,0,3.15-15.08c.76-5.07,1.54-10.26,2.15-15.35s1.09-10.24,1.46-15.38a299.54,299.54,0,0,0,.75-30.88A183,183,0,0,0,286,91.12a112.29,112.29,0,0,0-4-14.91,70.84,70.84,0,0,0-6.52-14,38.73,38.73,0,0,0-10.23-11.4,22.68,22.68,0,0,0-6.9-3.35A16.51,16.51,0,0,0,250.76,47.18Zm0-.06a16.59,16.59,0,0,1,7.69.3,22.79,22.79,0,0,1,7,3.33,38.92,38.92,0,0,1,10.31,11.39,71.15,71.15,0,0,1,6.59,14A112.62,112.62,0,0,1,286.38,91a183.55,183.55,0,0,1,3.42,30.75,293.67,293.67,0,0,1-.83,30.91q-.57,7.72-1.48,15.4c-.62,5.09-1.24,10.18-2.1,15.34s-1.93,10.15-3.21,15.14a116.94,116.94,0,0,1-5,14.64,74.19,74.19,0,0,1-7.51,13.54,49.8,49.8,0,0,1-10.74,11.13,38.69,38.69,0,0,1-14,6.54,35,35,0,0,1-15.4.3l-.11,0-.05-.09a16.64,16.64,0,0,1,.48-6.41,43.16,43.16,0,0,1,2.08-6.07c1.66-3.95,3.61-7.74,5.6-11.51,4-7.52,8-15.08,11.56-22.85a162.57,162.57,0,0,0,8.9-24,125.86,125.86,0,0,0,2.81-12.47c.77-4.2,1.14-8.44,1.49-12.7l.37-6.41c0-2.13.12-4.26.07-6.39q0-6.39-.57-12.77a217.84,217.84,0,0,0-3.63-25.31L256,85.18q-1.25-6.27-2.26-12.61c-1.31-8.44-2.46-16.91-3-25.43h0Z" />
                    <path class="cls-5" d="M250.81,47.21a53.41,53.41,0,0,1,6.87,11.28,103.36,103.36,0,0,1,4.82,12.38A130.81,130.81,0,0,1,266,83.73c1,4.35,1.78,8.7,2.45,13.1A270.45,270.45,0,0,1,271.24,150a200.85,200.85,0,0,1-2.94,26.53A129,129,0,0,1,261,202.16a100.67,100.67,0,0,1-5.95,12,80.23,80.23,0,0,1-7.55,11,74.69,74.69,0,0,1-9.49,9.38,46.66,46.66,0,0,0-4.83,4.6,21.61,21.61,0,0,0-3.5,5.57l-.17-.29a39.11,39.11,0,0,0,13.1-5.18,53.56,53.56,0,0,0,11-8.85,66.68,66.68,0,0,0,8.68-11.22,88.22,88.22,0,0,0,6.34-12.72,128,128,0,0,0,4.51-13.48c1.27-4.57,2.36-9.18,3.29-13.84a234.48,234.48,0,0,0,3.77-28.21,243.24,243.24,0,0,0,.4-28.43,210.29,210.29,0,0,0-3-28.21c-1.74-9.31-3.92-18.62-7.85-27.26a50.73,50.73,0,0,0-7.42-12.06,29.18,29.18,0,0,0-5.16-4.84A16,16,0,0,0,250.81,47.21Zm-.05-.09A15.93,15.93,0,0,1,257.23,50a29.29,29.29,0,0,1,5.25,4.81A50.9,50.9,0,0,1,270,66.87c4,8.65,6.24,18,8,27.33A220,220,0,0,1,280.8,151a234.5,234.5,0,0,1-3.88,28.21c-1,4.66-2.11,9.25-3.4,13.82a128.37,128.37,0,0,1-4.62,13.52,88,88,0,0,1-6.42,12.72,67.9,67.9,0,0,1-8.66,11.3,53.9,53.9,0,0,1-11.06,9,39.42,39.42,0,0,1-13.23,5.25.18.18,0,0,1-.22-.15h0a.19.19,0,0,1,0-.11h0a22,22,0,0,1,3.55-5.67,47,47,0,0,1,4.81-4.64,74.23,74.23,0,0,0,9.39-9.36,80.87,80.87,0,0,0,7.46-11,100.19,100.19,0,0,0,5.9-11.89,128.48,128.48,0,0,0,7.26-25.49,200.35,200.35,0,0,0,3-26.47c.43-8.87.34-17.75-.08-26.6S269.33,105.7,268,96.93q-.94-6.56-2.36-13.1c-1-4.32-2-8.64-3.39-12.86a103.2,103.2,0,0,0-4.78-12.4,53.11,53.11,0,0,0-6.8-11.4h0Z" />
                </g>
            </g>
            <g id="eggplant" data-name="Layer 2">
                <g id="Layer_1-2-2" data-name="Layer 1-2">
                    <path class="cls-6" d="M815.51,190.55c-10.84,18.17-29.5,32.27-48.69,28.72q-1.19-.22-2.36-.52c-17.11-4.41-25.94-23.1-22.68-39.68,2.81-14.35,12.2-26.47,19.5-38.76,4.76-8,15.27-24.31,3.15-51.49-2.9-6.49-3.91-19,8.7-24.7,6.54-2.93,15.35-3.09,23.32,6.59C831.25,113,835,157.92,815.51,190.55Z" />
                    <path class="cls-7" d="M773.16,64.16a19.85,19.85,0,0,0-4.82,3c6.05-1.41,15,.19,24.83,14.57,20.55,30.14,30.14,71.71,2.41,102-18.32,20.1-37.63,23.15-51.67,16.39,3.65,8.85,10.74,16.12,20.63,18.69q1.18.32,2.36.52c19.16,3.54,37.79-10.59,48.69-28.72,19.48-32.65,15.72-77.61-19-119.83C788.51,61.06,779.7,61.23,773.16,64.16Z" />
                    <path class="cls-8" d="M754.4,171.16c-3,6.19-2.92,15.55,6.29,18.23,11.76,3.4,23.51-9,28-18.44,6.82-14.3,6.63-27.19,3.12-37.3-2.37-6.88-6.57-10.65-10.09-9.48-5.55,1.87-6.81,9-8.28,13.87C768.63,154,758.69,162.3,754.4,171.16Z" />
                    <path class="cls-9" d="M767.11,61.46c-7.08,6.38-7.83,12-6.57,18.36,1,5.23,0,7.33,0,7.33A10.42,10.42,0,0,0,766.91,80l1.75-5.72s.45,2.46,5.11,4.69,6,5.43,6,5.43S787,72.5,778.35,68.06a11.5,11.5,0,0,0,6.88-1.63c3.6-2.13,8.42-1,8.42-1a25.32,25.32,0,0,0-9.57-6.57C778.41,56.87,772.51,56.59,767.11,61.46Z" />
                    <path class="cls-10" d="M784,58.91c-5.65-2-11.55-2.31-16.94,2.55a19,19,0,0,0-10.49-6.8c-3.37,1.55-1.92,6-1.92,6,5.81-1.09,10.11,3.06,10.11,3.06a12.4,12.4,0,0,1,6.53,2.52c5.69,4.54,5.54,9.82,5.54,9.82a9.76,9.76,0,0,1-8.3-1.82l1,1.75a11.93,11.93,0,0,0,4.06,3c4.65,2.22,6,5.43,6,5.43s7.23-11.89-1.42-16.34a11.5,11.5,0,0,0,6.88-1.63c3.6-2.13,8.42-1,8.42-1A25.32,25.32,0,0,0,784,58.91Z" />
                </g>
            </g>
            <g id="garlic">
                <path class="cls-11" d="M211.87,98.45c-14.42-4.65-26.22-3.65-26.22-22.29S186,62.7,186,62.7s-.54-2.86-8.88-2.86-8.87,2.88-8.87,2.88.36-5.13.36,13.46S156.8,93.8,142.38,98.45s-30.48,22.23-26.55,49.15c3,20.52,15.46,32.62,26.92,31.24,0,0,13.4,17.77,34.38,5.13,21,12.64,34.38-5.13,34.38-5.13,11.47,1.38,23.92-10.69,26.92-31.24C242.35,120.68,226.29,103.1,211.87,98.45Z" />
                <path class="cls-12" d="M153.2,107.42c5.13-4.76,6.63-9.68,6.26-14.15-4.6,2.12-10.57,3.08-17.08,5.13-14.42,4.7-30.48,22.27-26.55,49.19,3,20.52,15.46,32.62,26.92,31.24C132.55,160.27,135.49,123.7,153.2,107.42Z" />
                <path class="cls-13" d="M153.92,106.93c-.45.3-.72.49-.72.49Z" />
                <path class="cls-14" d="M211.87,98.45c-14.42-4.65-26.22-3.65-26.22-22.29,0-15.39.36-13.06.36-13.46,0,0,0-2.88-8.87-2.88a33.47,33.47,0,0,0-3.58.18c-5.89.63-5.29,2.7-5.29,2.7,0,.41.36-2,.36,13.46,0,18.61-11.8,17.61-26.22,22.27a45.28,45.28,0,0,0-8.21,4h0c11.67-4.4,16.68.92,19,5,0,0,.27-.19.72-.49,2.8-1.83,13.5-7.85,23.2-.17,9.84-9.3,20.8-2.44,28.19,4.66,9.18,8.82,22.29,41.5,6.15,67.42,11.47,1.38,23.92-10.69,26.92-31.24C242.35,120.68,226.29,103.1,211.87,98.45Z" />
                <circle class="cls-15" cx="159.51" cy="127.31" r="12.37" />
            </g>
            <g id="onion" data-name="Layer 2">
                <g id="Layer_1-2-3" data-name="Layer 1-2">
                    <path class="cls-18" d="M507.69,130.55c-7.47-11-19.74-17.66-30.54-25.44-8.37-6.05-16.47-14-19.82-23.42h-3.27c-3.36,9.45-11.45,17.35-19.82,23.42-10.81,7.81-23.07,14.41-30.54,25.44a41.48,41.48,0,0,0-1.59,42.95c7.52,13.09,27.42,23.76,53.58,23.76s46.06-10.67,53.58-23.76A41.48,41.48,0,0,0,507.69,130.55Z" />
                    <circle class="cls-19" cx="421.53" cy="149.71" r="10.22" />
                    <path class="cls-20" d="M507.69,130.55c-7.47-11-19.74-17.66-30.54-25.44-8.37-6.05-16.47-14-19.82-23.42h-3.27c0,40,26.76,37.51,31.44,65,4.9,28.82-20.65,48.5-64,43.35a79.59,79.59,0,0,0,34.17,7.21c26.12,0,46.06-10.67,53.58-23.76A41.48,41.48,0,0,0,507.69,130.55Z" />
                    <path class="cls-21" d="M497.22,130.57c-.67-1.16-1.33-2.31-2.09-3.41s-1.52-2.19-2.37-3.22-1.7-2.05-2.6-3-1.8-1.93-2.79-2.86c-3.83-3.71-8-7-12.1-10.55A73.12,73.12,0,0,1,464.1,96a44,44,0,0,1-7.41-14.22L457,82h-2.61l.33-.25A44,44,0,0,1,447.34,96a73,73,0,0,1-11.17,11.46c-4,3.49-8.22,6.81-12.05,10.52a52.86,52.86,0,0,0-9.83,12.55,46.66,46.66,0,0,0-3.08,7.35,51.55,51.55,0,0,0-1.8,7.77,52.33,52.33,0,0,0,.18,15.85,45,45,0,0,0,1.93,7.72,35.61,35.61,0,0,0,3.31,7.21,38.46,38.46,0,0,0,10.89,11.45A47.61,47.61,0,0,0,440,194.69a57.09,57.09,0,0,0,31.4,0,47.92,47.92,0,0,0,14.28-6.78,38.4,38.4,0,0,0,10.91-11.38,35.31,35.31,0,0,0,3.33-7.21,44.67,44.67,0,0,0,1.95-7.71,51.86,51.86,0,0,0-1.56-23.69A47.34,47.34,0,0,0,497.22,130.57Zm.06,0a47.46,47.46,0,0,1,3.14,7.36,52.1,52.1,0,0,1,1.8,23.79,45.18,45.18,0,0,1-1.87,7.81,35.81,35.81,0,0,1-3.3,7.33,39.07,39.07,0,0,1-11,11.69,48.37,48.37,0,0,1-14.51,6.88,57.82,57.82,0,0,1-31.81,0,48.33,48.33,0,0,1-14.48-6.91,38.86,38.86,0,0,1-11-11.71,36.14,36.14,0,0,1-3.29-7.33,45.45,45.45,0,0,1-1.87-7.81,52.88,52.88,0,0,1,0-16,51.92,51.92,0,0,1,1.8-7.81,46.92,46.92,0,0,1,3.14-7.38,54.2,54.2,0,0,1,9.83-12.67c3.81-3.76,8-7.12,12-10.62a72.55,72.55,0,0,0,11-11.49,43.43,43.43,0,0,0,7.21-14.08l.05-.25h3.1l.07.25a43.44,43.44,0,0,0,7.21,14.1,72.67,72.67,0,0,0,11,11.53c4,3.51,8.18,6.88,12,10.64.95.9,1.88,1.9,2.77,2.89s1.8,2,2.59,3.06,1.6,2.13,2.34,3.25,1.41,2.28,2.06,3.45Z" />
                    <path class="cls-21" d="M485.84,130.56c-.47-1.1-.9-2.21-1.46-3.28s-1.07-2.13-1.68-3.17a59.45,59.45,0,0,0-4-6c-2.86-3.84-6.11-7.37-9.2-11a66.35,66.35,0,0,1-8.22-11.82,53.67,53.67,0,0,1-3-6.57c-.42-1.13-.8-2.27-1.14-3.43s-.63-2.33-.9-3.5l.33.27h-1.89l.33-.27c-2,9.43-6.88,18-13.08,25.22-3.06,3.66-6.31,7.16-9.14,11a53.72,53.72,0,0,0-7.09,12.31,57.65,57.65,0,0,0-3.42,13.8,71.75,71.75,0,0,0-.38,14.22,61.64,61.64,0,0,0,2.56,14,37.62,37.62,0,0,0,6.6,12.47,33,33,0,0,0,10.81,8.89,30.55,30.55,0,0,0,27.24.14,33.12,33.12,0,0,0,5.94-3.79,36.93,36.93,0,0,0,11.71-17.38,60.78,60.78,0,0,0,2.7-14,71.36,71.36,0,0,0-.29-14.23A58.49,58.49,0,0,0,485.84,130.56Zm.07,0a58.61,58.61,0,0,1,3.46,13.85,71.65,71.65,0,0,1,.44,14.29,61.32,61.32,0,0,1-2.5,14.09,37.74,37.74,0,0,1-6.65,12.65,36.74,36.74,0,0,1-5.09,5.11,33.8,33.8,0,0,1-6.08,3.87,31.27,31.27,0,0,1-27.92-.17,33.75,33.75,0,0,1-11.07-9.09A38,38,0,0,1,424,172.43a62.15,62.15,0,0,1-2.45-14.1A72.57,72.57,0,0,1,422,144a57.9,57.9,0,0,1,3.53-13.84,55.35,55.35,0,0,1,7-12.43c2.83-3.85,6-7.39,9.06-11.05a65.7,65.7,0,0,0,8-11.76,50.12,50.12,0,0,0,4.84-13.31l.05-.27h2.45l.05.28q.36,1.75.84,3.47c.33,1.14.69,2.28,1.09,3.4A53.23,53.23,0,0,0,461.8,95a65.91,65.91,0,0,0,8.06,11.83c3,3.69,6.26,7.26,9.09,11.13a59.7,59.7,0,0,1,3.91,6q.9,1.56,1.65,3.2c.5,1.08.95,2.19,1.41,3.3Z" />
                    <path class="cls-21" d="M473.8,130.56a70.26,70.26,0,0,0-4.23-12.27c-1.8-4-3.89-7.76-5.86-11.65a75.66,75.66,0,0,1-7.77-24.9l.33.3h-1.13l.32-.3A75.72,75.72,0,0,1,448,106.07c-1.89,3.81-4,7.51-5.73,11.36A67.68,67.68,0,0,0,438,129.36a83.05,83.05,0,0,0-2.07,12.52,118.84,118.84,0,0,0-.5,12.69,113.27,113.27,0,0,0,.9,12.66,64.09,64.09,0,0,0,2.7,12.36,40.35,40.35,0,0,0,2.4,5.84,29.13,29.13,0,0,0,3.35,5.31c2.53,3.27,6.2,5.94,10.36,6.13s8-2.06,10.81-5.18a30.47,30.47,0,0,0,3.6-5.15,44.59,44.59,0,0,0,2.56-5.76,61.33,61.33,0,0,0,3-12.29,111,111,0,0,0,1-12.61A105.09,105.09,0,0,0,473.8,130.56Zm.07,0a105.34,105.34,0,0,1,2.5,25.29,111.7,111.7,0,0,1-.9,12.72,62,62,0,0,1-2.8,12.46,34.58,34.58,0,0,1-6.31,11.15,17.65,17.65,0,0,1-5.05,4,12.3,12.3,0,0,1-6.31,1.39,12.75,12.75,0,0,1-6.14-2,18.92,18.92,0,0,1-4.73-4.39,29.82,29.82,0,0,1-3.42-5.4,41.06,41.06,0,0,1-2.37-6,63.68,63.68,0,0,1-2.58-12.5,113.85,113.85,0,0,1-.77-12.73,102.17,102.17,0,0,1,2.77-25.28,71.29,71.29,0,0,1,4.22-12c1.74-3.88,3.77-7.61,5.62-11.42a75.21,75.21,0,0,0,7.21-24.19v-.3h1.73v.3c.15,1.07.28,2.14.46,3.22s.37,2.13.59,3.19q.66,3.18,1.59,6.31A76.94,76.94,0,0,0,464,106.44c1.91,3.9,4,7.73,5.73,11.71a70.41,70.41,0,0,1,4.17,12.39Z" />
                    <path class="cls-21" d="M462.13,130.55c-.38-4.09-.9-8.16-1.54-12.21s-1.48-8.11-2.22-12.12S457,98.11,456.57,94s-.84-8.16-1-12.3l.33.32h-.41l.33-.32a188.53,188.53,0,0,1-2.53,23.18l-2.11,11.45c-.66,3.82-1.23,7.67-1.59,11.52-.72,7.73-1,15.49-1,23.25s.23,15.52.84,23.25a113.79,113.79,0,0,0,1.49,11.48,51.88,51.88,0,0,0,1.32,5.62,11.92,11.92,0,0,0,2.5,5,1.39,1.39,0,0,0,2,0l.14-.15a7.67,7.67,0,0,0,1.45-2.34,32.12,32.12,0,0,0,1.68-5.49A96.75,96.75,0,0,0,461.73,177c.77-7.71,1-15.47,1.13-23.23S462.71,138.29,462.13,130.55Zm.07,0c.68,7.74.9,15.5,1,23.27s-.12,15.55-.76,23.3a94.09,94.09,0,0,1-1.76,11.56,32.83,32.83,0,0,1-1.74,5.62,8.32,8.32,0,0,1-1.61,2.57,3,3,0,0,1-.66.5,2,2,0,0,1-.83.25,2.15,2.15,0,0,1-1.59-.59c-1.53-1.51-2.09-3.46-2.7-5.31a52.58,52.58,0,0,1-1.34-5.7,114.4,114.4,0,0,1-1.43-11.59c-.55-7.76-.67-15.53-.59-23.3s.4-15.54,1.18-23.27c.39-3.86.9-7.72,1.5-11.56l2-11.51a188.66,188.66,0,0,0,2.31-23.09v-.33h1v.32c.21,4.1.44,8.19.9,12.27s.95,8.11,1.64,12.2,1.45,8.09,2.1,12.14,1,8.16,1.35,12.25Z" />
                </g>
            </g>
            <g id="pepper">
                <path class="cls-22" d="M56.81,240.29a3.45,3.45,0,0,1-4.06-5.44c13.15-13.78,25-34.58,30.21-48.62,6.09-16.57,3.28-35.44.26-50.74C81.3,125.8,74.4,105,72.48,95.24c-2.67-13.65,3.59-36.61,28.92-32.83,16.21,2.42,24.15,28.38,26.13,39.39,5.43,30.77,3.23,71.07-18.45,96C89,220.79,70.49,233.41,56.81,240.29Z" />
                <path class="cls-23" d="M95.32,178.87c4.84-15.18,5.88-33.77,2.22-52.22-1-5.11-3.17-12.59-5.47-20.52-2.15-7.42-4.51-15.08-5.28-19.72-1.94-11.85.66-15.53.66-15.53-8.37,4.72-9.52,16.65-8.28,23.07.91,4.63,3.13,12.3,5.28,19.72,2.28,7.92,4.31,15.43,5.47,20.52C99.7,177.1,78.45,207,72.56,213.51A80.84,80.84,0,0,0,95.32,178.87Z" />
                <path class="cls-24" d="M127.49,101.76c-1.92-11-9.87-36.94-26.13-39.39-6.94-1-12.44,0-16.75,2.22h0c15.67-4.78,27.83,26.56,31.35,54.85,5.86,47.79-21.06,97.76-63.33,120a3.34,3.34,0,0,0,4.18.87C70.5,233.41,89,220.77,109,197.78,130.72,172.83,132.89,132.51,127.49,101.76Z" />
                <path class="cls-9" d="M102.49,72.17A11,11,0,0,0,96,69.71a9.53,9.53,0,0,1-6.08-2.15c4.05,5.26-5.69,12.28-5.69,12.28a6.36,6.36,0,0,0-1.74-5C80.21,72.08,81,70.48,81,70.48l-3.74,2.86a10.8,10.8,0,0,1-7.65,2.24A12.08,12.08,0,0,0,74,71.72c3.53-4.65,5.45-7.95,11.7-11.56,5.46-3.16,15.4-3.34,23.25,3.34-1.47-.64-3.72.79-6.41,1.24a13.91,13.91,0,0,1-4.4-.41S101.46,66.33,102.49,72.17Z" />
                <path class="cls-10" d="M109,63.49c-7.22-6.13-16.22-6.43-21.87-4h0A11.78,11.78,0,0,1,84,49c.92-4.63,2.8-6.51,2.8-6.51s.12-3.09-3.9-2c-7.29,10.12,1.51,20.35,1.51,20.35l.05.05c6.9,5.57.53,13.42.53,13.42a8.39,8.39,0,0,1-4-3.86,2.26,2.26,0,0,0-.13,1,5.89,5.89,0,0,0,1.6,3.33,6.38,6.38,0,0,1,1.74,5s9.73-7,5.69-12.28A9.53,9.53,0,0,0,96,69.71a11,11,0,0,1,6.53,2.47c-1-5.86-4.31-7.76-4.31-7.76a13.91,13.91,0,0,0,4.4.41C105.24,64.28,107.5,62.85,109,63.49Z" />
            </g>
            <g id="radish" data-name="Layer 2">
                <g id="Layer_1-2-4" data-name="Layer 1-2">
                    <path class="cls-25" d="M364.79,56.24c5.43-1.37,10.65-8,6.12-14.63,5.1-1,9.64-10.36,1.95-14.67,5.18-.76,8.28-12.57-1-14.41,0,0,2.61-7.49-3.66-11.22-7.5-4.47-12.45,3.82-12.45,3.82C349-1.81,337.2,4.48,340.3,15c-12.85.35-12.53,16-5.56,17.52-11.73,7.59-4.9,17,.8,18.38-9.73,8.48,1.7,13.55,5.45,17.44,1.15,1.19,2.23,2.28,4.27,7.61,2.57,6.71,8.71,5.21,10-1.18C357.14,65.74,368.85,65,364.79,56.24Z" />
                    <path class="cls-26" d="M359.58,17.58s-13.5,24.3-12.24,100.61a109.17,109.17,0,0,0,1.41,13.35,1.44,1.44,0,0,0,2.86-.24h0c-.46-10.12-.46-45.88.74-59.8C355.43,35.53,359.58,17.58,359.58,17.58Z" />
                    <path class="cls-10" d="M392.75,91.55c5.37,1.57,13.23-1.49,12.68-9.47,4.89,1.75,13.54-4.08,9.06-11.7,4.85,2,13.5-6.66,6.46-12.91,0,0,6-5.13,2.51-11.57-4.21-7.61-12.63-3-12.63-3-2.37-9.47-15.71-10-18.34.66-11.26-6.2-18.94,7.46-13.68,12.31-14,.62-12.81,12.16-8.61,16.27-12.69,2.4-5.39,12.55-4.11,17.79.39,1.6.78,3.1-.16,8.71-1.18,7.08,4.88,8.9,9.25,4.05C381.34,95.9,391.8,101.18,392.75,91.55Z" />
                    <path class="cls-25" d="M407.58,54.13s-29.9,24.06-49.81,65.75c-2.29,4.81-4.21,9-5.67,12.53a1.47,1.47,0,0,0,2.65,1.26c4.83-9.18,7.87-16,15.29-28.24C389.19,73.87,407.58,54.13,407.58,54.13Z" />
                    <path class="cls-10" d="M318.54,90.24c-5,.48-11.4-3.5-9.59-10.47-4.59.73-11.25-5.82-6.05-11.79-4.59.93-10.79-8.08-3.56-12.42,0,0-4.47-5.51-.31-10.52,4.95-6,11.57-.54,11.57-.54,3.63-7.91,15.46-6.19,16,3.6,10.93-3.6,15.4,9.68,10,13.07,12.23,2.81,9.31,12.77,4.94,15.65,10.76,4.21,2.67,11.93.68,16.33-.61,1.35-1.19,2.6-1.29,7.69-.13,6.43-5.77,7-8.81,2C327.86,95.92,317.77,98.86,318.54,90.24Z" />
                    <path class="cls-25" d="M311.68,54.86s22.32,26.09,33,66c1.23,4.61,2.19,8.57,2.93,12a1.32,1.32,0,0,1-2.54.67c-2.74-8.86-4.28-15.4-8.8-27.36C324.59,75.24,311.68,54.86,311.68,54.86Z" />
                    <path class="cls-27" d="M308.45,160.13c-.85,14.38,6,22.74,12.73,29.21s18,9.67,22,16.28c3.29,5.36.52,14.11-5.93,16.66a16.25,16.25,0,0,0,10.35-4.54,36,36,0,0,0,7.48-9.81c3.16-5.67,7.43-8,11.17-10.43,9.75-6.41,12.38-6.31,19.08-13.68,10.18-11.25,17.66-54.1-36.46-54.1C321.18,129.74,309.35,144.78,308.45,160.13Z" />
                    <circle class="cls-28" cx="333.84" cy="155.88" r="9.06" />
                    <path class="cls-29" d="M351.38,129.8c35.05,8.92,27.68,44.35,18.57,55.17-13.68,16.26-29.93,15.29-33.57,14.42a21.13,21.13,0,0,1,6.8,6.23c3.29,5.36.52,14.11-5.93,16.66a16.25,16.25,0,0,0,10.35-4.54,36,36,0,0,0,7.48-9.81c3.16-5.67,7.43-8,11.17-10.43,9.75-6.41,12.38-6.31,19.08-13.68C395.33,172.77,402.7,131.13,351.38,129.8Z" />
                </g>
            </g>
            <g id="salad" data-name="Layer 2">
                <g id="Layer_1-2-5" data-name="Layer 1-2">
                    <path class="cls-30" d="M693.61,50.91c0-1.2,6.61-3.4,8,3.15a10.26,10.26,0,0,1-1.75,7.62,12.19,12.19,0,0,1,6.83,8.75,12.87,12.87,0,0,1-3.08,10.88A11.71,11.71,0,0,1,708,90.86a12.1,12.1,0,0,1-5.13,9.29c2.55,1.63,4.38,9.38-3.61,13.9,0,0,8.51,8.82-2.93,20.43-5.53,5.6-5.72,5.93-11.23,16.11-1.44,2.66-2.37,4.1-4.89,4.16-1.85.07-3.24-1.34-4.1-3-2.6-5.13-4.2-7.8-10-12.78-3.31-2.83-6.23-5.73-8.08-9.68-2.11-4.49-.45-10,2.6-12.11a9.76,9.76,0,0,1-8-6.15c-1.14-3-.57-6.85,2.13-8.61-4.74-1.3-8.72-8.52-7.62-13.46a12.59,12.59,0,0,1,7.18-8.72c-2.6-1.73-5.06-5.33-4.83-8.83.31-4.62,3.57-9.72,9.75-10.06-2.32-1.68-4.4-6.37-2.4-10.06a8.21,8.21,0,0,1,9.23-4.1s1-15.27,12.84-15.93C688.32,30.73,693.16,38.75,693.61,50.91Z" />
                    <path class="cls-31" d="M679.48,54.48s-3.72,78.25-3.08,100.29c.72,26.5,2.75,52.79,2.75,52.79l13.17,11.28V203.46s-6.4-41.47-8.76-70.38C681.77,111.41,679.48,54.48,679.48,54.48Z" />
                    <polygon class="cls-31" points="666.76 65.39 677.99 79.91 678 79.92 679.26 81.12 680.1 79.84 689.36 65.65 677.93 78.17 680.03 78.08 680.03 78.07 666.76 65.39" />
                    <path class="cls-31" d="M662.15,82.37c1.21,1.46,2.51,2.8,3.81,4.16s2.64,2.66,4,3.94c2.7,2.59,5.49,5.06,8.32,7.48l1,.85.84-.9c1.21-1.33,2.45-2.63,3.64-4s2.39-2.69,3.54-4.1,2.3-2.78,3.42-4.2,2.21-2.86,3.23-4.37c-1.45,1.09-2.85,2.29-4.18,3.46s-2.69,2.4-4,3.65l-3.92,3.76c-1.32,1.26-2.51,2.57-3.76,3.87l1.92-.14c-2.83-2.43-5.7-4.8-8.68-7.07-1.48-1.14-3-2.16-4.5-3.29S663.77,83.35,662.15,82.37Z" />
                    <path class="cls-31" d="M662.72,103.25c1.23,1.13,2.52,2.16,3.82,3.19s2.62,2.05,4,3,2.69,1.91,4,2.84,2.75,1.81,4.1,2.72l.89.58.79-.76c2.52-2.43,5-4.91,7.37-7.5,1.19-1.28,2.36-2.61,3.5-3.94s2.26-2.7,3.3-4.1c-1.48,1-2.86,2.05-4.26,3.16s-2.73,2.22-4.1,3.36c-2.67,2.29-5.23,4.67-7.74,7.11l1.67-.17c-1.41-.85-2.79-1.74-4.22-2.57s-2.77-1.71-4.23-2.49-2.9-1.54-4.37-2.31S664.27,103.88,662.72,103.25Z" />
                    <path class="cls-31" d="M665.46,120.29c1,1.14,2.05,2.22,3.08,3.27s2.15,2.05,3.27,3.08,2.3,2,3.44,3,2.3,1.91,3.45,2.85l.88.72.89-.8c1.13-1,2.18-2.11,3.28-3.17s2.12-2.17,3.16-3.29,2.05-2.27,3-3.44,1.94-2.37,2.81-3.65c-1.32.81-2.55,1.72-3.79,2.64s-2.41,1.88-3.58,2.85-2.32,2-3.5,3-2.25,2.05-3.32,3.08l1.77-.08c-1.19-.9-2.35-1.84-3.57-2.7s-2.41-1.75-3.65-2.6-2.44-1.62-3.71-2.47A38.84,38.84,0,0,0,665.46,120.29Z" />
                    <path class="cls-32" d="M685.1,54.6c0-1.25-7-3.33-8.21,3.5A10.65,10.65,0,0,0,678.94,66a12.65,12.65,0,0,0-6.84,9.23,13.34,13.34,0,0,0,3.55,11.21,12.17,12.17,0,0,0-4.22,10,12.57,12.57,0,0,0,5.55,9.5c-2.61,1.76-4.27,9.86,4.1,14.36,0,0-8.58,9.41,3.64,21.12,5.9,5.65,6.15,6,12.13,16.41,1.57,2.72,2.57,4.15,5.2,4.19,1.92,0,3.32-1.5,4.15-3.25,2.54-5.4,4.1-8.21,10-13.56,3.35-3.08,6.29-6.15,8.1-10.26,2.05-4.72.17-10.36-3.08-12.5a10.12,10.12,0,0,0,8.16-6.63c1.1-3.17.4-7.13-2.47-8.87,4.88-1.49,8.8-9.1,7.52-14.19a13.06,13.06,0,0,0-7.71-8.83c2.65-1.88,5.13-5.68,4.76-9.3-.45-4.78-4-10-10.4-10.17,2.36-1.82,4.38-6.74,2.21-10.51a8.5,8.5,0,0,0-9.64-4s-1.5-15.87-13.74-16.18C690,33.51,685.18,42,685.1,54.6Z" />
                    <path class="cls-31" d="M699.86,57.9s8.9,84.28,6.84,107.09c-2.45,27.11-10.76,60.85-10.76,60.85l-6.21,8.29-2.91-23s9.51-41.45,11.12-71.52C699.15,117,699.86,57.9,699.86,57.9Z" />
                    <polygon class="cls-31" points="713.38 68.85 702.15 84.24 702.14 84.25 700.87 85.54 699.96 84.23 689.94 69.78 702.15 82.43 699.98 82.41 699.99 82.39 713.38 68.85" />
                    <path class="cls-31" d="M718.66,86.33c-1.21,1.54-2.52,3-3.83,4.43s-2.66,2.83-4,4.21c-2.72,2.76-5.54,5.42-8.41,8l-1,.91-.93-1c-1.29-1.34-2.63-2.66-3.9-4s-2.55-2.72-3.79-4.1-2.46-2.82-3.67-4.25-2.37-2.91-3.47-4.47c1.53,1.11,3,2.3,4.44,3.49s2.86,2.42,4.25,3.67,2.76,2.52,4.1,3.8,2.68,2.61,4,3.9h-1.95c2.86-2.61,5.79-5.13,8.8-7.59,1.5-1.23,3.08-2.42,4.59-3.59S717,87.4,718.66,86.33Z" />
                    <path class="cls-31" d="M718.67,108c-1.25,1.17-2.55,2.32-3.87,3.43s-2.66,2.17-4,3.2l-4.1,3.08c-1.36,1-2.8,2-4.2,2.93l-.9.64-.85-.82c-2.69-2.45-5.32-5-7.87-7.56-1.27-1.3-2.52-2.64-3.74-4s-2.42-2.74-3.55-4.21c1.56,1,3.08,2.05,4.51,3.15s2.9,2.22,4.31,3.37q4.25,3.43,8.21,7.18l-1.74-.12c1.44-.92,2.84-1.9,4.3-2.79s2.89-1.82,4.38-2.67,3-1.7,4.47-2.52S717.09,108.72,718.67,108Z" />
                    <path class="cls-31" d="M716.3,125.78c-1,1.21-2.05,2.36-3.14,3.49s-2.17,2.24-3.3,3.29-2.26,2.13-3.41,3.17-2.33,2.05-3.5,3.08l-.89.77-.94-.81c-1.2-1-2.33-2.12-3.5-3.19s-2.27-2.2-3.37-3.32-2.18-2.29-3.23-3.48-2.05-2.41-3-3.71c1.4.8,2.7,1.71,4,2.63s2.55,1.88,3.8,2.85,2.46,2,3.66,3,2.4,2.05,3.54,3.14h-1.84c1.2-1,2.39-2,3.63-2.9s2.45-1.9,3.71-2.8,2.53-1.8,3.83-2.68S714.93,126.55,716.3,125.78Z" />
                    <path class="cls-2" d="M669.75,82.52c-.16-1.24,6.48-4.19,8.62,2.44a10.66,10.66,0,0,1-1,8.05,12.65,12.65,0,0,1,8,8.35,13.34,13.34,0,0,1-2.11,11.56,12.17,12.17,0,0,1,5.45,9.42,12.57,12.57,0,0,1-4.31,10.12c2.81,1.43,5.47,9.23-2.32,14.72,0,0,9.69,8.21-1,21.41-5.13,6.35-5.31,6.71-10,17.79-1.22,2.89-2.05,4.44-4.64,4.8-1.91.26-3.49-1-4.53-2.71-3.2-5-5.13-7.63-11.65-12.19-3.7-2.59-7-5.29-9.33-9.23-2.64-4.43-1.47-10.26,1.46-12.78a10.12,10.12,0,0,1-8.92-5.55c-1.49-3-1.29-7,1.33-9.11-5-.86-9.88-7.92-9.23-13.14a13.06,13.06,0,0,1,6.54-9.74c-2.88-1.52-5.8-5-5.91-8.58-.15-4.8,2.7-10.41,9-11.39-2.59-1.55-5.19-6.19-3.51-10.16a8.5,8.5,0,0,1,9.13-5.13s-.54-15.92,11.56-17.77C662.24,62.17,668.08,70,669.75,82.52Z" />
                    <path class="cls-11" d="M655.51,87.64s1.74,84.73,6.65,107.1c5.84,26.59,24.71,42.85,24.71,42.85h3.5V214.32S673,198,667.66,168.38C663.65,146.2,655.51,87.64,655.51,87.64Z" />
                    <polygon class="cls-11" points="643.48 100.17 658.67 111.69 658.68 111.7 656.04 112.06 666.85 98.14 658.98 113.92 658.13 115.62 656.34 114.27 656.33 114.25 643.48 100.17" />
                    <path class="cls-11" d="M640.43,118.17c1.82.78,3.53,1.7,5.26,2.62s3.4,1.9,5,2.91c3.32,2.05,6.54,4.1,9.71,6.37l-2.35.36c1.18-1.45,2.31-2.93,3.52-4.36s2.4-2.86,3.66-4.25,2.52-2.77,3.83-4.1,2.65-2.67,4.1-3.92c-.85,1.7-1.82,3.31-2.78,4.93s-2,3.19-3.08,4.73-2.12,3.08-3.2,4.61-2.24,3-3.34,4.49l-1,1.31-1.37-1c-3.12-2.18-6.29-4.51-9.26-6.94-1.52-1.21-3-2.46-4.47-3.74A58.54,58.54,0,0,1,640.43,118.17Z" />
                    <path class="cls-11" d="M643.14,139.68c1.69.44,3.31,1,4.94,1.57s3.22,1.19,4.8,1.87,3.14,1.35,4.71,2.05,3.08,1.45,4.63,2.21l-2.05.42c1.17-1.4,2.37-2.76,3.58-4.1s2.46-2.68,3.75-4,2.59-2.57,3.92-3.83a54.42,54.42,0,0,1,4.2-3.59c-.87,1.64-1.88,3.18-2.87,4.72s-2.05,3-3.15,4.48-2.22,2.89-3.31,4.34-2.3,2.82-3.49,4.2l-.89,1-1.2-.62c-1.52-.78-3.08-1.57-4.52-2.41s-3-1.66-4.44-2.57-2.91-1.81-4.35-2.76S644.49,140.78,643.14,139.68Z" />
                    <path class="cls-11" d="M647.73,157c1.49.54,2.92,1.19,4.34,1.85s2.81,1.35,4.18,2.05,2.73,1.48,4.1,2.27,2.68,1.57,4,2.4l-2.24.33c2.05-2.42,4.18-4.73,6.41-7,1.13-1.11,2.29-2.2,3.48-3.24a46.36,46.36,0,0,1,3.74-3,46.25,46.25,0,0,1-2.41,4.16q-1.29,2-2.7,3.92c-1.88,2.54-3.85,5-5.94,7.37l-1,1.13-1.23-.81q-1.94-1.28-3.84-2.63c-1.26-.9-2.52-1.81-3.75-2.76s-2.44-1.93-3.64-2.93A45.67,45.67,0,0,1,647.73,157Z" />
                    <path class="cls-3" d="M711,82.52c.16-1.24-6.48-4.19-8.62,2.44a10.65,10.65,0,0,0,1,8.05,12.65,12.65,0,0,0-8,8.35,13.34,13.34,0,0,0,2.11,11.56,12.17,12.17,0,0,0-5.43,9.39,12.57,12.57,0,0,0,4.31,10.12c-2.81,1.43-5.47,9.23,2.32,14.72,0,0-9.69,8.21,1,21.41,5.13,6.35,5.31,6.71,10,17.79,1.22,2.89,2.05,4.44,4.64,4.8,1.91.26,3.49-1,4.53-2.71,3.2-5,5.13-7.63,11.65-12.19,3.7-2.59,7-5.29,9.33-9.23,2.64-4.43,1.47-10.26-1.46-12.78a10.12,10.12,0,0,0,8.92-5.55c1.49-3,1.29-7-1.33-9.11,5-.86,9.88-7.92,9.23-13.14a13.06,13.06,0,0,0-6.54-9.74c2.86-1.53,5.78-5,5.89-8.64.15-4.8-2.7-10.41-9-11.39,2.57-1.5,5.19-6.15,3.51-10.16a8.5,8.5,0,0,0-9.14-5.13s.54-15.92-11.56-17.77C718.51,62.17,712.65,70,711,82.52Z" />
                    <path class="cls-11" d="M725.23,87.64s-1.74,84.73-6.65,107.1c-5.84,26.59-24.71,42.85-24.71,42.85h-3.5V214.32S707.7,198,713.08,168.38C717.1,146.2,725.23,87.64,725.23,87.64Z" />
                    <polygon class="cls-11" points="737.26 100.17 724.41 114.25 724.39 114.27 722.61 115.62 721.76 113.92 713.89 98.14 724.69 112.06 722.06 111.7 722.07 111.69 737.26 100.17" />
                    <path class="cls-11" d="M740.35,118.17c-1.35,1.44-2.81,2.74-4.26,4s-3,2.53-4.47,3.74c-3,2.43-6.15,4.73-9.31,6.93l-1.37,1-1-1.31c-1.11-1.5-2.27-3-3.34-4.49s-2.17-3.08-3.2-4.61-2.05-3.14-3.08-4.73-1.87-3.23-2.76-4.93c1.44,1.25,2.76,2.59,4.1,3.92s2.6,2.72,3.83,4.1,2.45,2.82,3.66,4.25,2.34,2.91,3.52,4.36l-2.35-.36c3.17-2.23,6.39-4.37,9.71-6.37,1.65-1,3.34-2,5-2.91A57.75,57.75,0,0,1,740.35,118.17Z" />
                    <path class="cls-11" d="M737.6,139.68c-1.35,1.1-2.78,2.05-4.2,3.08s-2.87,1.89-4.35,2.76-3,1.72-4.44,2.57-3,1.63-4.52,2.41l-1.2.62-.89-1c-1.19-1.37-2.34-2.78-3.49-4.2s-2.26-2.86-3.31-4.34-2.12-3-3.15-4.48a52.09,52.09,0,0,1-2.87-4.72c1.49,1.13,2.83,2.36,4.2,3.59s2.65,2.52,3.92,3.83,2.5,2.65,3.75,4,2.41,2.72,3.58,4.1l-2.05-.42c1.53-.76,3.08-1.51,4.63-2.21s3.08-1.42,4.71-2.05,3.19-1.27,4.8-1.87S735.91,140.13,737.6,139.68Z" />
                    <path class="cls-11" d="M733,157c-1.12,1.13-2.29,2.16-3.48,3.18s-2.4,2.05-3.64,2.93-2.48,1.87-3.75,2.76-2.54,1.77-3.84,2.63l-1.23.81-1-1.13c-2.05-2.36-4.1-4.83-5.95-7.37q-1.4-1.92-2.7-3.92a46.37,46.37,0,0,1-2.41-4.16,46.32,46.32,0,0,1,3.76,3c1.2,1,2.35,2.13,3.48,3.24,2.24,2.24,4.39,4.54,6.42,7l-2.22-.34q2-1.25,4-2.4c1.34-.77,2.69-1.55,4.1-2.27s2.77-1.42,4.18-2.05S731.52,157.55,733,157Z" />
                </g>
            </g>
            <g id="tomato" data-name="Layer 2">
                <g id="Layer_1-2-6" data-name="Layer 1-2">
                    <path class="cls-22" d="M628.44,108.54C617.78,96.31,599.37,90.82,584,96.48c-3.26,1.24-16.69,1.24-19.91,0-15.38-5.66-33.83-.17-44.49,12.06-12.71,14.52-16.66,34-14,52.26C509,184.07,522,200,546.12,207.2c13.44,4,18.67,1.85,27.86,1.85s14.42,2.14,27.86-1.85c24.08-7.17,37.07-23.11,40.52-46.4C645.06,142.49,641.11,123.07,628.44,108.54Z" />
                    <circle class="cls-23" cx="539.71" cy="127.82" r="13.61" />
                    <path class="cls-33" d="M628.44,108.54C617.78,96.31,599.37,90.82,584,96.48c-3.26,1.24-16.69,1.24-19.91,0a37.62,37.62,0,0,0-15.79-2.1c8.77,1.92,9.08,13,36.6,11,25.57-1.89,44.45,36.09,29.87,67.33-9,19.41-39.82,32.56-80.37,29.87a70.2,70.2,0,0,0,11.77,4.65c13.44,4,18.67,1.85,27.86,1.85s14.42,2.14,27.86-1.85c24.08-7.17,37.07-23.11,40.51-46.4C645.06,142.49,641.11,123.07,628.44,108.54Z" />
                    <path class="cls-25" d="M573.47,90.66c-2.49-6.4-8.82-10.27-15.68-11,3.3,3.17,5.7,5.89,6.81,11.42-3.6-2-13.3-3.48-18.67.31,7.09.8,11,2.38,15.15,7.13a12.76,12.76,0,0,0-3.48,5.63,31,31,0,0,0,.21,6.92c4.38-6.22,14.83-3,15.31-9.53,0,0,10.78,2.05,14.93,9.51.8-9.82-4-11.56-4-11.56,4.54-3.27,13-.95,17.9.56-3.16-4.68-10.08-8.65-16.44-7.82a15.26,15.26,0,0,1,12.32-7.73c-7.94-2.73-19.2-2.61-24.39,6.09Z" />
                    <path class="cls-26" d="M578.69,64.9C570.1,71.68,571,88.17,572,96a2.17,2.17,0,0,0,2.24-.17c0-4.78.39-12.22,2.17-17.2C579,71.46,583,69.29,583,69.29a4,4,0,0,0-4.34-4.39Z" />
                </g>
            </g>
            <rect class="cls-34" x="824.19" y="126.39" width="63.98" height="247.92" />
            <g class="cls-35">
                <rect x="824.19" y="126.39" width="63.98" height="247.92" />
            </g>
            <g class="cls-36">
                <rect x="824.19" y="158.38" width="63.98" height="8" />
            </g>
            <g class="cls-36">
                <rect x="824.19" y="358.31" width="63.98" height="8" />
            </g>
            <rect class="cls-34" x="14.33" y="126.39" width="63.98" height="247.92" />
            <g class="cls-35">
                <rect x="14.33" y="126.39" width="63.98" height="247.92" />
            </g>
            <rect class="cls-34" x="7.03" y="166.37" width="886.1" height="95.97" />
            <rect class="cls-34" x="7.03" y="262.35" width="886.1" height="95.97" />
            <g class="cls-36">
                <rect x="14.33" y="158.38" width="63.98" height="8" />
            </g>
            <g class="cls-36">
                <rect x="13.33" y="358.31" width="63.98" height="8" />
            </g>
            <g class="cls-37">
                <rect class="cls-15" x="7.03" y="166.37" width="886.1" height="8" />
            </g>
            <g class="cls-36">
                <rect x="7.03" y="254.35" width="886.1" height="8" />
            </g>
            <g class="cls-37">
                <rect class="cls-15" x="7.03" y="262.35" width="886.1" height="8" />
            </g>
            <g class="cls-36">
                <rect x="7.03" y="350.32" width="886.1" height="8" />
            </g>
            <path class="cls-38" d="M864.19,214.36a8,8,0,1,1-8-8A8,8,0,0,1,864.19,214.36Z" />
            <g class="cls-37">
                <path class="cls-15" d="M856.19,214.36a7.88,7.88,0,0,1,4-6.77,7.77,7.77,0,0,0-4-1.23,8,8,0,0,0,0,16,7.78,7.78,0,0,0,4-1.23A7.88,7.88,0,0,1,856.19,214.36Z" />
            </g>
            <path class="cls-38" d="M864.19,310.33a8,8,0,1,1-8-8A8,8,0,0,1,864.19,310.33Z" />
            <g class="cls-37">
                <path class="cls-15" d="M856.19,310.33a7.88,7.88,0,0,1,4-6.77,7.78,7.78,0,0,0-4-1.23,8,8,0,1,0,0,16,7.77,7.77,0,0,0,4-1.23A7.88,7.88,0,0,1,856.19,310.33Z" />
            </g>
            <g class="cls-37">
                <rect class="cls-15" x="14.33" y="126.39" width="8" height="31.99" />
            </g>
            <g class="cls-36">
                <rect x="70.31" y="126.39" width="8" height="31.99" />
            </g>
            <g class="cls-37">
                <rect class="cls-15" x="13.33" y="366.31" width="8" height="8" />
            </g>
            <g class="cls-36">
                <rect x="69.31" y="366.31" width="8" height="8" />
            </g>
            <g class="cls-37">
                <rect class="cls-15" x="824.19" y="366.31" width="8" height="8" />
            </g>
            <g class="cls-36">
                <rect x="880.18" y="366.31" width="8" height="8" />
            </g>
            <g class="cls-37">
                <rect class="cls-15" x="824.19" y="126.39" width="8" height="31.99" />
            </g>
            <g class="cls-36">
                <rect x="880.18" y="126.39" width="8" height="31.99" />
            </g>
            <path class="cls-39" d="M893.14,266.35H7c-3.89,0-7-1.79-7-4v-96c0-2.21,3.15-4,7-4H893.14c3.89,0,7,1.79,7,4v96C900.18,264.56,897,266.35,893.14,266.35Zm-879.08-8h872v-88h-872Z" />
            <path class="cls-39" d="M893.14,362.32H7c-3.89,0-7-1.79-7-4v-96c0-2.21,3.15-4,7-4H893.14c3.89,0,7,1.79,7,4v96C900.18,360.53,897,362.32,893.14,362.32Zm-879.08-8h872v-88h-872Z" />
            <path class="cls-39" d="M14.33,162.38a4,4,0,0,1-4-4v-32a4,4,0,1,1,8,0v32A4,4,0,0,1,14.33,162.38Z" />
            <path class="cls-39" d="M78.31,130.39h-64a4,4,0,1,1,0-8h64a4,4,0,0,1,0,8Z" />
            <path class="cls-39" d="M78.31,162.38a4,4,0,0,1-4-4v-32a4,4,0,1,1,8,0v32A4,4,0,0,1,78.31,162.38Z" />
            <path class="cls-39" d="M77.31,378.31a4,4,0,0,1-4-4v-8a4,4,0,1,1,8,0v8A4,4,0,0,1,77.31,378.31Z" />
            <path class="cls-39" d="M77.31,378.31h-64a4,4,0,1,1,0-8h64a4,4,0,0,1,0,8Z" />
            <path class="cls-39" d="M13.33,378.31a4,4,0,0,1-4-4v-8a4,4,0,1,1,8,0v8A4,4,0,0,1,13.33,378.31Z" />
            <path class="cls-39" d="M824.2,162.38a4,4,0,0,1-4-4v-32a4,4,0,1,1,8,0v32A4,4,0,0,1,824.2,162.38Z" />
            <path class="cls-39" d="M888.18,130.39h-64a4,4,0,0,1,0-8h64a4,4,0,1,1,0,8Z" />
            <path class="cls-39" d="M888.18,162.38a4,4,0,0,1-4-4v-32a4,4,0,1,1,8,0v32A4,4,0,0,1,888.18,162.38Z" />
            <path class="cls-39" d="M888.18,378.31a4,4,0,0,1-4-4v-8a4,4,0,0,1,8,0v8A4,4,0,0,1,888.18,378.31Z" />
            <path class="cls-39" d="M888.18,378.31h-64a4,4,0,0,1,0-8h64a4,4,0,1,1,0,8Z" />
            <path class="cls-39" d="M824.2,378.31a4,4,0,0,1-4-4v-8a4,4,0,0,1,8,0v8A4,4,0,0,1,824.2,378.31Z" />
            <path class="cls-38" d="M52.32,214.36a8,8,0,1,1-8-8A8,8,0,0,1,52.32,214.36Z" />
            <g class="cls-37">
                <path class="cls-15" d="M44.32,214.36a7.87,7.87,0,0,1,4-6.77,7.76,7.76,0,0,0-4-1.23,8,8,0,0,0,0,16,7.77,7.77,0,0,0,4-1.23A7.88,7.88,0,0,1,44.32,214.36Z" />
            </g>
            <path class="cls-39" d="M44.32,226.36a12,12,0,1,1,12-12A12,12,0,0,1,44.32,226.36Zm0-16a4,4,0,1,0,4,4A4,4,0,0,0,44.32,210.37Z" />
            <path class="cls-39" d="M856.19,226.36a12,12,0,1,1,12-12A12,12,0,0,1,856.19,226.36Zm0-16a4,4,0,1,0,4,4A4,4,0,0,0,856.19,210.37Z" />
            <path class="cls-38" d="M52.32,310.33a8,8,0,1,1-8-8A8,8,0,0,1,52.32,310.33Z" />
            <g class="cls-37">
                <path class="cls-15" d="M44.32,310.33a7.88,7.88,0,0,1,4-6.77,7.77,7.77,0,0,0-4-1.23,8,8,0,0,0,0,16,7.76,7.76,0,0,0,4-1.23A7.88,7.88,0,0,1,44.32,310.33Z" />
            </g>
            <path class="cls-39" d="M44.32,322.33a12,12,0,1,1,12-12A12,12,0,0,1,44.32,322.33Zm0-16a4,4,0,1,0,4,4A4,4,0,0,0,44.32,306.34Z" />
            <path class="cls-39" d="M856.19,322.33a12,12,0,1,1,12-12A12,12,0,0,1,856.19,322.33Zm0-16a4,4,0,1,0,4,4A4,4,0,0,0,856.19,306.34Z" />
            <path class="cls-39" d="M400.33,266.35a4.12,4.12,0,0,1-2.8-1.12,4,4,0,0,1-1.2-2.87,3.8,3.8,0,0,1,1.2-2.88,4.09,4.09,0,0,1,5.6.08,3.78,3.78,0,0,1,1.2,2.8,4,4,0,0,1-1.12,2.8A4.19,4.19,0,0,1,400.33,266.35Z" />
            <path class="cls-39" d="M464.31,266.35a4.12,4.12,0,0,1-2.8-1.12,4,4,0,0,1-1.2-2.87,3.77,3.77,0,0,1,1.2-2.8,4,4,0,0,1,5.6,0,3.79,3.79,0,0,1,1.2,2.8,3.75,3.75,0,0,1-1.2,2.8A3.86,3.86,0,0,1,464.31,266.35Z" />
            <path class="cls-39" d="M824.2,266.35a4.29,4.29,0,0,1-2.8-1.12,4.19,4.19,0,0,1-1.2-2.87,3.78,3.78,0,0,1,1.2-2.8,3.94,3.94,0,0,1,5.6,0,3.76,3.76,0,0,1,1.2,2.8,4.1,4.1,0,0,1-1.12,2.8A4.17,4.17,0,0,1,824.2,266.35Z" />
            <path class="cls-39" d="M888.18,266.35a4.14,4.14,0,0,1-2.8-1.12,4.19,4.19,0,0,1-1.2-2.87,3.78,3.78,0,0,1,1.2-2.8,4,4,0,0,1,5.6,0,3.76,3.76,0,0,1,1.2,2.8,4.1,4.1,0,0,1-1.12,2.8A4.17,4.17,0,0,1,888.18,266.35Z" />
        </g>
    </g>
</svg>