<svg xmlns="http://www.w3.org/2000/svg" viewBox="0 0 511.84 255.92"><defs><style>.cls-1{fill:#ffd2a6;}.cls-2{opacity:0.1;}.cls-3{opacity:0.2;}.cls-4{opacity:0.5;}.cls-5{fill:#fff;}.cls-6{fill:#656d78;}.cls-7{fill:#3a3847;}</style></defs><title>colored_bascket</title><g id="Layer_2" data-name="Layer 2"><g id="Capa_1" data-name="Capa 1"><rect class="cls-1" x="435.86" y="4" width="63.98" height="247.92"/><g class="cls-2"><rect x="435.86" y="4" width="63.98" height="247.92"/></g><g class="cls-3"><rect x="435.86" y="35.99" width="63.98" height="8"/></g><g class="cls-3"><rect x="435.86" y="235.92" width="63.98" height="8"/></g><rect class="cls-1" x="12" y="4" width="63.98" height="247.92"/><g class="cls-2"><rect x="12" y="4" width="63.98" height="247.92"/></g><rect class="cls-1" x="4" y="43.98" width="503.84" height="95.97"/><rect class="cls-1" x="4" y="139.96" width="503.84" height="95.97"/><g class="cls-3"><rect x="12" y="35.99" width="63.98" height="8"/></g><g class="cls-3"><rect x="12" y="235.92" width="63.98" height="8"/></g><g class="cls-4"><rect class="cls-5" x="4" y="43.98" width="503.84" height="8"/></g><g class="cls-3"><rect x="4" y="131.96" width="503.84" height="8"/></g><g class="cls-4"><rect class="cls-5" x="4" y="139.96" width="503.84" height="8"/></g><g class="cls-3"><rect x="4" y="227.93" width="503.84" height="8"/></g><path class="cls-6" d="M52,92a8,8,0,1,1-8-8A8,8,0,0,1,52,92Z"/><g class="cls-4"><path class="cls-5" d="M44,92a7.87,7.87,0,0,1,4-6.77A7.76,7.76,0,0,0,44,84a8,8,0,0,0,0,16,7.77,7.77,0,0,0,4-1.23A7.88,7.88,0,0,1,44,92Z"/></g><path class="cls-6" d="M52,187.94a8,8,0,1,1-8-8A8,8,0,0,1,52,187.94Z"/><g class="cls-4"><path class="cls-5" d="M44,187.94a7.88,7.88,0,0,1,4-6.77,7.77,7.77,0,0,0-4-1.23,8,8,0,0,0,0,16,7.76,7.76,0,0,0,4-1.23A7.88,7.88,0,0,1,44,187.94Z"/></g><path class="cls-6" d="M475.85,92a8,8,0,1,1-8-8A8,8,0,0,1,475.85,92Z"/><g class="cls-4"><path class="cls-5" d="M467.86,92a7.88,7.88,0,0,1,4-6.77,7.77,7.77,0,0,0-4-1.23,8,8,0,0,0,0,16,7.78,7.78,0,0,0,4-1.23A7.88,7.88,0,0,1,467.86,92Z"/></g><path class="cls-6" d="M475.85,187.94a8,8,0,1,1-8-8A8,8,0,0,1,475.85,187.94Z"/><g class="cls-4"><path class="cls-5" d="M467.86,187.94a7.88,7.88,0,0,1,4-6.77,7.78,7.78,0,0,0-4-1.23,8,8,0,0,0,0,16,7.77,7.77,0,0,0,4-1.23A7.88,7.88,0,0,1,467.86,187.94Z"/></g><g class="cls-4"><rect class="cls-5" x="12" y="4" width="8" height="31.99"/></g><g class="cls-3"><rect x="67.98" y="4" width="8" height="31.99"/></g><g class="cls-4"><rect class="cls-5" x="12" y="243.92" width="8" height="8"/></g><g class="cls-3"><rect x="67.98" y="243.92" width="8" height="8"/></g><g class="cls-4"><rect class="cls-5" x="435.86" y="243.92" width="8" height="8"/></g><g class="cls-3"><rect x="491.85" y="243.92" width="8" height="8"/></g><g class="cls-4"><rect class="cls-5" x="435.86" y="4" width="8" height="31.99"/></g><g class="cls-3"><rect x="491.85" y="4" width="8" height="31.99"/></g><path class="cls-7" d="M507.84,144H4a4,4,0,0,1-4-4V44a4,4,0,0,1,4-4H507.84a4,4,0,0,1,4,4v96A4,4,0,0,1,507.84,144ZM8,136H503.84V48H8Z"/><path class="cls-7" d="M507.84,239.93H4a4,4,0,0,1-4-4V140a4,4,0,0,1,4-4H507.84a4,4,0,0,1,4,4v96A4,4,0,0,1,507.84,239.93ZM8,231.93H503.84V144H8Z"/><path class="cls-7" d="M12,40a4,4,0,0,1-4-4V4a4,4,0,1,1,8,0V36A4,4,0,0,1,12,40Z"/><path class="cls-7" d="M76,8H12a4,4,0,1,1,0-8H76a4,4,0,0,1,0,8Z"/><path class="cls-7" d="M76,40a4,4,0,0,1-4-4V4a4,4,0,1,1,8,0V36A4,4,0,0,1,76,40Z"/><path class="cls-7" d="M76,255.92a4,4,0,0,1-4-4v-8a4,4,0,1,1,8,0v8A4,4,0,0,1,76,255.92Z"/><path class="cls-7" d="M76,255.92H12a4,4,0,1,1,0-8H76a4,4,0,0,1,0,8Z"/><path class="cls-7" d="M12,255.92a4,4,0,0,1-4-4v-8a4,4,0,1,1,8,0v8A4,4,0,0,1,12,255.92Z"/><path class="cls-7" d="M435.86,40a4,4,0,0,1-4-4V4a4,4,0,0,1,8,0V36A4,4,0,0,1,435.86,40Z"/><path class="cls-7" d="M499.85,8h-64a4,4,0,0,1,0-8h64a4,4,0,0,1,0,8Z"/><path class="cls-7" d="M499.85,40a4,4,0,0,1-4-4V4a4,4,0,1,1,8,0V36A4,4,0,0,1,499.85,40Z"/><path class="cls-7" d="M499.85,255.92a4,4,0,0,1-4-4v-8a4,4,0,0,1,8,0v8A4,4,0,0,1,499.85,255.92Z"/><path class="cls-7" d="M499.85,255.92h-64a4,4,0,0,1,0-8h64a4,4,0,1,1,0,8Z"/><path class="cls-7" d="M435.86,255.92a4,4,0,0,1-4-4v-8a4,4,0,0,1,8,0v8A4,4,0,0,1,435.86,255.92Z"/><path class="cls-7" d="M44,104A12,12,0,1,1,56,92,12,12,0,0,1,44,104Zm0-16a4,4,0,1,0,4,4A4,4,0,0,0,44,88Z"/><path class="cls-7" d="M467.86,104a12,12,0,1,1,12-12A12,12,0,0,1,467.86,104Zm0-16a4,4,0,1,0,4,4A4,4,0,0,0,467.86,88Z"/><path class="cls-7" d="M44,199.94a12,12,0,1,1,12-12A12,12,0,0,1,44,199.94Zm0-16a4,4,0,1,0,4,4A4,4,0,0,0,44,183.94Z"/><path class="cls-7" d="M467.86,199.94a12,12,0,1,1,12-12A12,12,0,0,1,467.86,199.94Zm0-16a4,4,0,1,0,4,4A4,4,0,0,0,467.86,183.94Z"/><path class="cls-7" d="M12,144a4.12,4.12,0,0,1-2.8-1.12A4,4,0,0,1,8,140a3.8,3.8,0,0,1,1.2-2.88,4.09,4.09,0,0,1,5.6.08A3.78,3.78,0,0,1,16,140a4,4,0,0,1-1.12,2.8A4.19,4.19,0,0,1,12,144Z"/><path class="cls-7" d="M76,144a4.12,4.12,0,0,1-2.8-1.12A4,4,0,0,1,72,140a3.77,3.77,0,0,1,1.2-2.8,4,4,0,0,1,5.6,0A3.79,3.79,0,0,1,80,140a3.75,3.75,0,0,1-1.2,2.8A3.86,3.86,0,0,1,76,144Z"/><path class="cls-7" d="M435.86,144a4.29,4.29,0,0,1-2.8-1.12,4.19,4.19,0,0,1-1.2-2.87,3.78,3.78,0,0,1,1.2-2.8,3.94,3.94,0,0,1,5.6,0,3.76,3.76,0,0,1,1.2,2.8,4.1,4.1,0,0,1-1.12,2.8A4.17,4.17,0,0,1,435.86,144Z"/><path class="cls-7" d="M499.85,144a4.14,4.14,0,0,1-2.8-1.12,4.19,4.19,0,0,1-1.2-2.87,3.78,3.78,0,0,1,1.2-2.8,4,4,0,0,1,5.6,0,3.76,3.76,0,0,1,1.2,2.8,4.1,4.1,0,0,1-1.12,2.8A4.17,4.17,0,0,1,499.85,144Z"/></g></g></svg>