<svg xmlns="http://www.w3.org/2000/svg" viewBox="0 0 138.33 176.01"><defs><style>.cls-1{fill:#6daf44;}.cls-2{fill:#609e3e;}.cls-3{fill:#87c558;}.cls-4{fill:#528a34;}</style></defs><title>cucumber</title><g id="Layer_2" data-name="Layer 2"><g id="Layer_1-2" data-name="Layer 1"><path class="cls-1" d="M105,4.12C112-.52,120-2.11,127.4,4c12.83,10.45,12.05,30.25,9.15,44.43a215.43,215.43,0,0,1-26.29,66.37c-15.69,25.36-36.41,49-66.44,58.88-13.6,4.49-38,4-43-14.33-2.8-10.16,1.89-21.95,12.46-31.54,8.35-7.58,17.77-14,25.52-21.91C47.1,97.33,55.2,88.76,61.37,78.57,69.45,65.22,75.78,51,82.23,36.81,87.76,24.66,93.17,11.88,105,4.12Z"/><path class="cls-2" d="M127.4,4A15.93,15.93,0,0,0,114.21.25c8.73,2.81,12.24,9.75,13.14,23.7C130.85,78.84,37.59,207.8.26,156.68a21.91,21.91,0,0,0,.53,2.63c5.06,18.34,29.42,18.83,43,14.33,30-9.92,50.75-33.52,66.44-58.88a215.43,215.43,0,0,0,26.29-66.37C139.46,34.22,140.23,14.42,127.4,4Z"/><path class="cls-3" d="M54,129.06c1.41-4.31,0-8.58-5.8-10-10.29-2.44-28.79,12.14-33.52,20.08-4.41,7.42-1.77,15,7.16,14.56C37.19,153,50.42,140,54,129.06Z"/><circle class="cls-3" cx="111.75" cy="78.81" r="2.54" transform="translate(-17.73 122.78) rotate(-53.95)"/><circle class="cls-3" cx="73.26" cy="75.94" r="2.54" transform="translate(-31.25 90.48) rotate(-53.95)"/><circle class="cls-3" cx="118.96" cy="8.84" r="2.54" transform="translate(41.8 99.82) rotate(-53.95)"/><circle class="cls-3" cx="118.92" cy="34.1" r="2.54" transform="translate(21.37 110.18) rotate(-53.95)"/><circle class="cls-3" cx="130.42" cy="53.15" r="2.54" transform="translate(10.69 127.32) rotate(-53.95)"/><circle class="cls-3" cx="69.58" cy="136.74" r="2.54" transform="matrix(0.59, -0.81, 0.81, 0.59, -81.92, 112.52)"/><circle class="cls-3" cx="96.22" cy="56.51" r="2.54" transform="matrix(0.59, -0.81, 0.81, 0.59, -6.09, 101.05)"/><circle class="cls-3" cx="97.3" cy="124.34" r="2.54" transform="translate(-60.5 129.83) rotate(-53.95)"/><circle class="cls-3" cx="61.4" cy="156.61" r="2.54" transform="translate(-101.35 114.09) rotate(-53.95)"/><circle class="cls-3" cx="33.83" cy="163.45" r="2.54" transform="translate(-118.23 94.61) rotate(-53.95)"/><circle class="cls-3" cx="62.82" cy="102.39" r="2.54" transform="translate(-56.93 92.92) rotate(-53.95)"/><circle class="cls-3" cx="42.5" cy="113.88" r="2.54" transform="translate(-74.59 81.22) rotate(-53.95)"/><circle class="cls-3" cx="85.06" cy="99.66" r="2.54" transform="translate(-45.58 109.78) rotate(-53.95)"/><circle class="cls-3" cx="97.14" cy="25.79" r="2.54" transform="translate(19.12 89.15) rotate(-53.95)"/><path class="cls-4" d="M114.21.28l-.33,0a5.09,5.09,0,0,0-1,.2,8.73,8.73,0,0,0-3.2,2c-2.48,2.26-5.2,6.42-8,12S95.79,27,92.36,35,85.12,52,80.51,61.73s-10,20-17.41,29.89-17.22,18.53-27.82,26.7c-5.29,4.11-10.79,8.12-16.19,12.4s-10.8,8.81-14.74,14.65a22.37,22.37,0,0,0-3.83,9.71c-.06.86-.33,1.8.18,2.51a11.33,11.33,0,0,0,1.6,2.08,28.23,28.23,0,0,0,4,3.47,40.15,40.15,0,0,0,19.75,7.31,46.1,46.1,0,0,0,20.88-3.18,71.08,71.08,0,0,0,18.15-10.72c11-8.78,19.81-19.59,27.48-30.52a294.41,294.41,0,0,0,20.28-32.78,205.32,205.32,0,0,0,13.61-31.71A114.72,114.72,0,0,0,132.23,33c.49-8.66-.54-16.36-3.09-22.07a20.45,20.45,0,0,0-4.66-6.81,13.72,13.72,0,0,0-9-3.81C114.66.26,114.21.28,114.21.28Zm0-.06s.45,0,1.31,0a13.8,13.8,0,0,1,9,3.79,20.6,20.6,0,0,1,4.73,6.83c2.6,5.73,3.67,13.46,3.22,22.16a115.19,115.19,0,0,1-5.59,28.67,192.41,192.41,0,0,1-13.56,31.83A295.07,295.07,0,0,1,93,126.32c-7.7,10.93-16.55,21.81-27.62,30.6a71.55,71.55,0,0,1-18.31,10.73A46.5,46.5,0,0,1,26,170.79a40.47,40.47,0,0,1-19.89-7.44,28.49,28.49,0,0,1-4-3.52,11.56,11.56,0,0,1-1.63-2.13,2,2,0,0,1-.32-1.33c0-.45.06-.89.12-1.33a22.6,22.6,0,0,1,3.9-9.79c4-5.84,9.43-10.39,14.77-14.72s10.87-8.34,16.14-12.47c10.55-8.21,20.25-16.93,27.64-26.73a139.31,139.31,0,0,0,9.67-15c2.86-5,5.4-10,7.73-14.8,4.66-9.64,8.52-18.67,12-26.65S98.66,20,101.55,14.41s5.61-9.71,8.12-12a8.82,8.82,0,0,1,3.24-2,5.13,5.13,0,0,1,1-.2Z"/><path class="cls-4" d="M114.22.28c-3.62,7.48-6.75,15.19-9.67,23-1.45,3.9-2.85,7.82-4.15,11.77L96.51,46.88a212.75,212.75,0,0,1-9.13,23.25c-1.75,3.78-3.71,7.46-5.77,11.08-1,1.82-2.14,3.57-3.21,5.37L75,91.81c-2.39,3.41-4.8,6.82-7.51,10A122.25,122.25,0,0,1,59,111a158.75,158.75,0,0,1-19.28,15.86C32.9,131.64,25.81,136,18.8,140.5c-3.5,2.25-7,4.51-10.29,7a41.77,41.77,0,0,0-4.66,4.11,15.92,15.92,0,0,0-3.44,5.09l0-.17a33.75,33.75,0,0,0,13,7.14,37.32,37.32,0,0,0,14.84,1.21,48.11,48.11,0,0,0,14.33-4.19A73.19,73.19,0,0,0,55.4,153a113.34,113.34,0,0,0,11.31-9.88c3.5-3.59,6.89-7.29,10-11.2S83,124,86,120s5.9-8.12,8.72-12.28A292,292,0,0,0,110.38,82,178.35,178.35,0,0,0,122.6,54.54,109.46,109.46,0,0,0,126.47,40a69.06,69.06,0,0,0,1.31-15,37.76,37.76,0,0,0-3.09-14.61,22.11,22.11,0,0,0-4.2-6.19A16.09,16.09,0,0,0,114.22.28Zm0-.07a16.17,16.17,0,0,1,6.35,4,22.22,22.22,0,0,1,4.26,6.2A37.94,37.94,0,0,1,128,25.05a69.36,69.36,0,0,1-1.23,15,109.79,109.79,0,0,1-3.8,14.6A178.93,178.93,0,0,1,110.9,82.29,286.28,286.28,0,0,1,95.16,108q-4.24,6.24-8.74,12.29c-3,4-6,8-9.24,11.93s-6.57,7.63-10.08,11.23a114,114,0,0,1-11.38,9.92,72.32,72.32,0,0,1-12.93,7.78,48.55,48.55,0,0,1-14.49,4.17,37.72,37.72,0,0,1-15-1.28A34.08,34.08,0,0,1,.15,156.8l-.08-.07,0-.1a16.22,16.22,0,0,1,3.52-5.18,42.07,42.07,0,0,1,4.71-4.12c3.32-2.53,6.82-4.78,10.33-7,7-4.43,14.12-8.83,20.88-13.68a158.48,158.48,0,0,0,19.18-15.91,122.69,122.69,0,0,0,8.44-9.17c2.69-3.17,5.07-6.58,7.44-10L78,86.34c1.05-1.79,2.17-3.54,3.17-5.36q3.07-5.42,5.73-11.06a212.36,212.36,0,0,0,9.25-23.15l4-11.84c1.33-3.94,2.75-7.86,4.23-11.75,3-7.77,6.15-15.48,9.83-22.95v0Z"/><path class="cls-4" d="M114.25.33a52.07,52.07,0,0,1,.31,12.87A100.76,100.76,0,0,1,112.61,26c-.88,4.24-2,8.42-3.31,12.56s-2.73,8.22-4.31,12.26a263.64,263.64,0,0,1-23.5,46.28A195.79,195.79,0,0,1,66.1,118.08a125.74,125.74,0,0,1-18.63,18.1,98.14,98.14,0,0,1-10.84,7.2A78.21,78.21,0,0,1,24.9,149a72.81,72.81,0,0,1-12.58,3.31A45.49,45.49,0,0,0,6,153.85a21.07,21.07,0,0,0-5.67,3l0-.33a38.13,38.13,0,0,0,13.58,2,52.21,52.21,0,0,0,13.64-2.1,65,65,0,0,0,12.79-5.26,86,86,0,0,0,11.54-7.66,124.74,124.74,0,0,0,10.37-9.19c3.3-3.24,6.46-6.61,9.51-10.09a228.58,228.58,0,0,0,16.91-22,237.12,237.12,0,0,0,14.17-23.82A205,205,0,0,0,114,53.09c3.06-8.71,5.75-17.63,6.63-26.85a49.45,49.45,0,0,0-.4-13.8,28.45,28.45,0,0,0-2-6.6A15.55,15.55,0,0,0,114.25.33Zm0-.1a15.53,15.53,0,0,1,4.07,5.57,28.55,28.55,0,0,1,2.09,6.62,49.62,49.62,0,0,1,.48,13.85c-.83,9.25-3.47,18.22-6.5,27a214.49,214.49,0,0,1-25.31,49.32,228.6,228.6,0,0,1-17,21.94C69,128,65.8,131.32,62.48,134.55A125.14,125.14,0,0,1,52,143.72a85.81,85.81,0,0,1-11.61,7.62,66.19,66.19,0,0,1-12.81,5.33,52.54,52.54,0,0,1-13.7,2.18,38.43,38.43,0,0,1-13.73-2,.18.18,0,0,1-.11-.23.19.19,0,0,1,.06-.09h0a21.47,21.47,0,0,1,5.76-3.06,45.81,45.81,0,0,1,6.32-1.58,72.36,72.36,0,0,0,12.49-3.34,78.83,78.83,0,0,0,11.64-5.63,97.67,97.67,0,0,0,10.77-7.17,125.25,125.25,0,0,0,18.54-18A195.31,195.31,0,0,0,81,96.83C85.68,89.55,89.93,82,93.88,74.32s7.55-15.57,10.73-23.61q2.4-6,4.38-12.21c1.29-4.12,2.49-8.29,3.39-12.51a100.6,100.6,0,0,0,2-12.8A51.77,51.77,0,0,0,114.18.25a0,0,0,0,1,0,0Z"/></g></g></svg>