<svg xmlns="http://www.w3.org/2000/svg" viewBox="0 0 125.89 140.23"><defs><style>.cls-1{fill:#60266c;}.cls-2{fill:#572262;}.cls-3{fill:#8f3894;}.cls-4{fill:#37b34a;}.cls-5{fill:#31a444;}</style></defs><title>eggplant</title><g id="Layer_2" data-name="Layer 2"><g id="Layer_1-2" data-name="Layer 1"><path class="cls-1" d="M60.07,137c-19.71,6.07-42.42,4.1-54-11q-.72-.94-1.37-1.92C-4.81,109.72,1,90.42,14.19,80.55,25.59,72,40.3,69.35,53.61,65.22,62.27,62.54,80.54,57.59,89.51,30c2.14-6.59,9.61-16.34,22.42-12.2,6.65,2.15,13.13,7.78,12.58,20C122.12,91.1,95.49,126.11,60.07,137Z"/><path class="cls-2" d="M111.93,17.85a19.35,19.35,0,0,0-5.42-1c5.3,2.93,10.75,9.95,8.46,26.76-4.8,35.24-25,71.59-64.86,75.43C23.73,121.63,7.75,111.23,2,97.17c-3.14,8.79-2.75,18.68,2.73,27q.65,1,1.37,1.92c11.56,15.07,34.27,17,54,11,35.42-10.92,62.05-45.92,64.45-99.18C125.06,25.63,118.58,20,111.93,17.85Z"/><path class="cls-3" d="M28.49,83.06c-6.22,2.52-12.27,9.35-7.35,17.3,6.29,10.14,22.91,8.81,32.31,4.93C67.72,99.39,76,89.93,80.06,80.33c2.78-6.53,2.2-12-1.12-13.45-5.24-2.27-10.8,2.06-15.05,4.64C50,79.93,37.38,79.45,28.49,83.06Z"/><path class="cls-4" d="M109.31,11.95c-9.29,0-13.53,3.6-16.74,9-2.66,4.46-4.8,5.29-4.8,5.29a10.16,10.16,0,0,0,9.29-1l5-3s-1.28,2.08.64,6.73.8,7.85.8,7.85,13-3.89,9.64-12.76a11.21,11.21,0,0,0,6.05,3.31c4,.81,6.73,4.8,6.73,4.8a24.68,24.68,0,0,0-2.64-11C120.49,16,116.4,11.95,109.31,11.95Z"/><path class="cls-5" d="M123.24,21.16c-2.76-5.16-6.85-9.21-13.93-9.21A18.57,18.57,0,0,0,106.15.18C102.7-.9,100.82,3.3,100.82,3.3c4.92,3,5.32,8.81,5.32,8.81a12.09,12.09,0,0,1,3.08,6.09c1.15,7-2.4,10.73-2.4,10.73A9.51,9.51,0,0,1,102,22.2l-.4,1.93a11.63,11.63,0,0,0,1,4.8c1.92,4.64.8,7.85.8,7.85s13-3.89,9.64-12.76a11.21,11.21,0,0,0,6.05,3.31c4,.81,6.73,4.8,6.73,4.8A24.68,24.68,0,0,0,123.24,21.16Z"/></g></g></svg>