<svg xmlns="http://www.w3.org/2000/svg" viewBox="0 0 511.87 287.93"><title>empty_bascket</title><g id="Layer_2" data-name="Layer 2"><g id="Capa_1" data-name="Capa 1"><path d="M507.87,48H4a4,4,0,0,0-4,4v96a4,4,0,0,0,4,4H507.87a4,4,0,0,0,4-4V52A4,4,0,0,0,507.87,48Zm-4,96H8V56H503.87Z"/><path d="M507.87,160H4a4,4,0,0,0-4,4v96a4,4,0,0,0,4,4H507.87a4,4,0,0,0,4-4V164A4,4,0,0,0,507.87,160Zm-4,96H8V168H503.87Z"/><path d="M12,0A4,4,0,0,0,8,4V36a4,4,0,0,0,8,0V4A4,4,0,0,0,12,0Z"/><path d="M76,0H12a4,4,0,1,0,0,8H76a4,4,0,1,0,0-8Z"/><path d="M76,0a4,4,0,0,0-4,4V36a4,4,0,0,0,8,0V4A4,4,0,0,0,76,0Z"/><path d="M76,271.93a4,4,0,0,0-4,4v8a4,4,0,0,0,8,0v-8A4,4,0,0,0,76,271.93Z"/><path d="M76,279.93H12a4,4,0,1,0,0,8H76a4,4,0,1,0,0-8Z"/><path d="M12,271.93a4,4,0,0,0-4,4v8a4,4,0,0,0,8,0v-8A4,4,0,0,0,12,271.93Z"/><path d="M435.89,0a4,4,0,0,0-4,4V36a4,4,0,1,0,8,0V4A4,4,0,0,0,435.89,0Z"/><path d="M499.87,0h-64a4,4,0,0,0,0,8h64a4,4,0,1,0,0-8Z"/><path d="M499.87,0a4,4,0,0,0-4,4V36a4,4,0,1,0,8,0V4A4,4,0,0,0,499.87,0Z"/><path d="M499.87,271.93a4,4,0,0,0-4,4v8a4,4,0,1,0,8,0v-8A4,4,0,0,0,499.87,271.93Z"/><path d="M499.87,279.93h-64a4,4,0,0,0,0,8h64a4,4,0,1,0,0-8Z"/><path d="M435.89,271.93a4,4,0,0,0-4,4v8a4,4,0,1,0,8,0v-8A4,4,0,0,0,435.89,271.93Z"/><path d="M44,88a12,12,0,1,0,12,12A12,12,0,0,0,44,88Zm0,16a4,4,0,1,1,4-4A4,4,0,0,1,44,104Z"/><path d="M467.88,88a12,12,0,1,0,12,12A12,12,0,0,0,467.88,88Zm0,16a4,4,0,1,1,4-4A4,4,0,0,1,467.88,104Z"/><path d="M44,199.95a12,12,0,1,0,12,12A12,12,0,0,0,44,199.95Zm0,16a4,4,0,1,1,4-4A4,4,0,0,1,44,215.95Z"/><path d="M467.88,199.95a12,12,0,1,0,12,12A12,12,0,0,0,467.88,199.95Zm0,16a4,4,0,1,1,4-4A4,4,0,0,1,467.88,215.95Z"/></g></g></svg>