<svg xmlns="http://www.w3.org/2000/svg" xmlns:xlink="http://www.w3.org/1999/xlink" viewBox="0 0 151.5 152.36"><defs><style>.cls-1{fill:none;}.cls-2{fill:#ffecd2;}.cls-3{fill:#ebd4b8;}.cls-4{fill:#eee4b8;}.cls-5{fill:#c6b59e;}.cls-6{fill:#fff;}.cls-7{clip-path:url(#clip-path);}.cls-8{fill:#9d8f7f;}</style><clipPath id="clip-path"><path class="cls-1" d="M124.87,46.73C110.81,42.2,99.31,43.17,99.31,25s.35-13.12.35-13.12S99.13,9.09,91,9.09s-8.65,2.81-8.65,2.81.35-5,.35,13.12S71.19,42.2,57.13,46.73,27.42,68.4,31.25,94.64c2.93,20,15.07,31.8,26.24,30.45,0,0,13.06,17.32,33.51,5,20.45,12.32,33.51-5,33.51-5,11.18,1.35,23.32-10.42,26.24-30.45C154.59,68.4,138.93,51.27,124.87,46.73Z"/></clipPath></defs><title>garlic</title><g id="Layer_2" data-name="Layer 2"><g id="Layer_1-2" data-name="Layer 1"><path class="cls-2" d="M124.87,46.73C110.81,42.2,99.31,43.17,99.31,25s.35-13.12.35-13.12S99.13,9.09,91,9.09s-8.65,2.81-8.65,2.81.35-5,.35,13.12S71.19,42.2,57.13,46.73,27.42,68.4,31.25,94.64c2.93,20,15.07,31.8,26.24,30.45,0,0,13.06,17.32,33.51,5,20.45,12.32,33.51-5,33.51-5,11.18,1.35,23.32-10.42,26.24-30.45C154.59,68.4,138.93,51.27,124.87,46.73Z"/><path class="cls-3" d="M67.68,55.48c5-4.64,6.46-9.44,6.1-13.79-4.48,2.07-10.3,3-16.65,5C43.07,51.27,27.42,68.4,31.25,94.64c2.93,20,15.07,31.8,26.24,30.45C47.55,107,50.42,71.35,67.68,55.48Z"/><path class="cls-4" d="M68.38,55c-.44.29-.7.48-.7.48Z"/><path class="cls-5" d="M124.87,46.73C110.81,42.2,99.31,43.17,99.31,25c0-15,.35-12.73.35-13.12,0,0,0-2.81-8.65-2.81a32.63,32.63,0,0,0-3.49.18c-5.74.61-5.16,2.63-5.16,2.63,0,.4.35-1.91.35,13.12,0,18.14-11.5,17.17-25.56,21.71a44.14,44.14,0,0,0-8,3.91h0c11.38-4.29,16.26.9,18.57,4.83,0,0,.26-.19.7-.48,2.73-1.78,13.16-7.65,22.62-.17,9.59-9.07,20.28-2.38,27.48,4.54,8.95,8.6,21.73,40.46,6,65.72,11.18,1.35,23.32-10.42,26.24-30.45C154.59,68.4,138.93,51.27,124.87,46.73Z"/><circle class="cls-6" cx="73.83" cy="74.87" r="12.06"/><g class="cls-7"><path class="cls-8" d="M73.82,144.39a8.25,8.25,0,0,1-1.67-.77A22.52,22.52,0,0,1,68,140.49c-3.28-3.05-7.12-8.25-10.7-15a44.5,44.5,0,0,1-4.16-11.65,68.49,68.49,0,0,1-1.51-13.7,76,76,0,0,1,1.22-14.66A66.75,66.75,0,0,1,57,70.85a46.79,46.79,0,0,1,7.88-13c3.34-3.84,7.39-6.72,11-9.76S83.15,42,85,38.18a12.64,12.64,0,0,0,1.22-6q0-3.08,0-5.95c.08-7.63.15-14,.2-18.44l.14-7h.08s0,2.54.14,7L87,26.24q0,2.86,0,5.95a13.51,13.51,0,0,1-1.28,6.36c-2,4.11-5.64,7.23-9.33,10.2s-7.73,5.89-11.06,9.56a45.8,45.8,0,0,0-8,12.7,65.46,65.46,0,0,0-4.27,14.49,75.64,75.64,0,0,0-1,14.61c.26,9.5,2.34,18.3,5.75,25.06a77.08,77.08,0,0,0,5.29,8.91,46.43,46.43,0,0,0,5.07,6.16,22.35,22.35,0,0,0,4,3.25,8.12,8.12,0,0,0,1.61.82Z"/><path class="cls-8" d="M108.56,144.31a8,8,0,0,0,1.64-.8,21.52,21.52,0,0,0,4-3.23,43.84,43.84,0,0,0,5.09-6.18,74,74,0,0,0,5.24-9,70.84,70.84,0,0,0,4.4-11.48,66.19,66.19,0,0,0,2.38-13.52,60.75,60.75,0,0,0-.73-14.67,54.13,54.13,0,0,0-13.36-26.83,84.6,84.6,0,0,0-10.94-9.8c-3.7-3-7.45-6-9.54-10.09a13,13,0,0,1-1.4-6.38q0-3.1,0-6c.08-7.66.15-14.05.2-18.52l.14-7h.08s0,2.56.14,7,.12,10.86.2,18.52q0,2.87,0,6a12.12,12.12,0,0,0,1.32,6c2,3.83,5.64,6.8,9.3,9.83a80.21,80.21,0,0,1,10.92,10,55.64,55.64,0,0,1,13.1,27.25,61.11,61.11,0,0,1,1,14.75,66.56,66.56,0,0,1-2.2,13.67,58.09,58.09,0,0,1-4.48,11.58c-3.52,6.84-7.35,12.09-10.67,15.14a21.74,21.74,0,0,1-4.17,3.11,8.11,8.11,0,0,1-1.69.75Z"/><path class="cls-8" d="M78.88,144.39a5.64,5.64,0,0,1-1.53-.84A16.88,16.88,0,0,1,73.92,140c-2.59-3.38-5.23-8.91-7.47-15.81a64.52,64.52,0,0,1-2.4-11.47,103.18,103.18,0,0,1-.76-13,117.54,117.54,0,0,1,.81-13.93A90.59,90.59,0,0,1,66.66,71.6,52.1,52.1,0,0,1,72.1,58.24c2.49-4.14,5.91-7.42,8.83-10.83s5.56-6.94,6.41-10.93a26.45,26.45,0,0,0,.41-5.91c0-1.95,0-3.83,0-5.64.08-7.23.15-13.26.2-17.48s.14-6.63.14-6.63h.08s0,2.41.14,6.63.12,10.25.2,17.48c0,1.81,0,3.69,0,5.64a27.21,27.21,0,0,1-.41,6.1c-.88,4.22-3.6,8-6.62,11.31s-6.37,6.67-8.88,10.64a50.93,50.93,0,0,0-5.6,13.11A87.57,87.57,0,0,0,64.36,85.8a117.1,117.1,0,0,0-.57,13.9,120.16,120.16,0,0,0,1,13A77.2,77.2,0,0,0,67.07,124a79.52,79.52,0,0,0,3.43,9.21,42.66,42.66,0,0,0,3.7,6.59,16.63,16.63,0,0,0,3.24,3.6,5.53,5.53,0,0,0,1.46.89Z"/><path class="cls-8" d="M104,144.31a6.07,6.07,0,0,0,1.41-1,19.62,19.62,0,0,0,3.14-3.73,49.12,49.12,0,0,0,3.73-6.61,85.74,85.74,0,0,0,6.58-20.44,91.75,91.75,0,0,0,1.58-12.93A82.68,82.68,0,0,0,120,85.69a70.63,70.63,0,0,0-3.31-14,58.81,58.81,0,0,0-6.3-12.88A80.71,80.71,0,0,0,101.59,48c-3-3.34-5.86-7-6.81-11.25a25.32,25.32,0,0,1-.45-6.12c0-2,0-3.85.06-5.66.08-7.26.15-13.3.19-17.54L94.71.81h.08l.13,6.65c0,4.23.11,10.28.19,17.54,0,1.81,0,3.7.06,5.66a24.49,24.49,0,0,0,.45,5.92c.9,4,3.64,7.5,6.6,10.88a76.76,76.76,0,0,1,8.71,11,60.13,60.13,0,0,1,6.13,13.11,70.94,70.94,0,0,1,3.15,14.1,83.74,83.74,0,0,1,.71,14,85.52,85.52,0,0,1-1.35,13,71.47,71.47,0,0,1-3,11.37c-2.45,6.85-5.19,12.33-7.72,15.76a19.86,19.86,0,0,1-3.33,3.64,6.16,6.16,0,0,1-1.48.94Z"/><path class="cls-8" d="M83.2,144.39a4.27,4.27,0,0,1-1.28-1.1,18.84,18.84,0,0,1-2.54-4,48.27,48.27,0,0,1-2.65-6.88c-.85-2.72-1.69-5.82-2.4-9.25a117.36,117.36,0,0,1-1.95-23.81c0-4.37.19-8.89.59-13.46a131.12,131.12,0,0,1,1.66-13.81,69.27,69.27,0,0,1,3.64-13.45c1.72-4.33,4.4-8,6.58-11.78A27.64,27.64,0,0,0,89,35.32c.19-1.94.13-3.9.14-5.78s0-3.7,0-5.45l.2-16.88.14-6.4h.08l.14,6.4c0,4.07.12,9.89.2,16.88q0,2.62,0,5.45c0,1.88.07,3.83-.13,5.87A27.43,27.43,0,0,1,85.57,47.3c-2.25,3.76-4.89,7.43-6.67,11.61a67.52,67.52,0,0,0-3.85,13.26,124.4,124.4,0,0,0-1.83,13.75c-.31,4.57-.4,9.08-.35,13.44s.32,8.56.65,12.54S74.32,119.62,75,123a77.38,77.38,0,0,0,4.73,16.11A18.59,18.59,0,0,0,82,143.19a4.14,4.14,0,0,0,1.2,1.12Z"/><path class="cls-8" d="M99.7,144.32a4.83,4.83,0,0,0,1.07-1.24,22.81,22.81,0,0,0,2.09-4.18,94.74,94.74,0,0,0,4.55-16.11c.67-3.4,1.27-7.11,1.74-11.06s.85-8.13,1-12.47a125.93,125.93,0,0,0-.27-13.38,107.76,107.76,0,0,0-2-13.66A79.15,79.15,0,0,0,103.73,59,92.86,92.86,0,0,0,97.57,47.2,28.43,28.43,0,0,1,93.5,35.27c-.16-2-.11-4-.1-5.84L93.46,24c.08-7,.14-12.75.19-16.81L93.77.81h.08L94,7.19c0,4.06.11,9.86.19,16.81q0,2.61.06,5.43c0,1.88,0,3.82.13,5.76a28.67,28.67,0,0,0,4,11.59,87.47,87.47,0,0,1,6,12,81,81,0,0,1,3.86,13.33,108.1,108.1,0,0,1,1.87,13.73,133.8,133.8,0,0,1,.48,13.41,118.37,118.37,0,0,1-2.49,23.66A92.17,92.17,0,0,1,103.2,139a23.09,23.09,0,0,1-2.31,4.13,5,5,0,0,1-1.15,1.22Z"/><path class="cls-8" d="M87.6,144.39a1.76,1.76,0,0,1-.27-.33,7.52,7.52,0,0,1-.57-1.08,30.15,30.15,0,0,1-1.44-4.39c-.51-1.92-1-4.3-1.42-7s-.91-5.83-1.26-9.21-.66-7.08-.78-11-.17-8-.15-12.28.14-8.65.37-13.12.39-9,.83-13.52A120,120,0,0,1,84.74,59c.88-4.42,2.48-8.56,3.72-12.6a44.59,44.59,0,0,0,2.13-11.92c0-3.89.06-7.57.09-11,.08-6.81.15-12.48.2-16.45L91,.81h.08L91.23,7c0,4,.12,9.64.2,16.45,0,3.41.08,7.08,0,11a42.57,42.57,0,0,1-2.19,12.14c-1.31,4.07-2.88,8.17-3.85,12.5a115.37,115.37,0,0,0-2.1,13.33c-.49,4.51-.79,9-1,13.49s-.16,8.86-.13,13.11c.15,8.5.51,16.43,1.08,23.19a139.91,139.91,0,0,0,2.38,16.23,29.89,29.89,0,0,0,1.24,4.42,7.45,7.45,0,0,0,.52,1.09,1.7,1.7,0,0,0,.24.32Z"/><path class="cls-8" d="M95.47,144.33a7.32,7.32,0,0,0,.54-1.51,44.83,44.83,0,0,0,.89-4.49c.67-3.89,1.34-9.49,1.9-16.24S99.86,107.47,100,99c.09-4.23.06-8.61-.07-13S99.44,77,99,72.52s-1.09-9-1.89-13.32-1.92-8.57-3-12.69a52.46,52.46,0,0,1-1.69-12.16c0-3.9,0-7.56.06-11,.08-6.78.14-12.42.18-16.38s.12-6.21.12-6.21h.08L93,7c0,4,.11,9.6.18,16.38,0,3.39.07,7.05.1,10.93A55.74,55.74,0,0,0,95,46.3c1,4.1,2.13,8.36,2.82,12.77s1.25,8.9,1.65,13.4.63,9,.75,13.47.29,8.82.26,13.06c0,8.48-.3,16.39-1,23.15S98,134.51,97.28,138.4a45.06,45.06,0,0,1-1.12,4.46,7.46,7.46,0,0,1-.63,1.51Z"/><path class="cls-8" d="M91,145q-.28-11.27-.32-22.55c-.08-7.52,0-15,.11-22.55s.09-15,0-22.55L90.6,54.83v0c.4-4,.64-8,.76-12s.05-8.05.11-12.08c.13-8.06.16-16.12.39-24.19h.08c.22,8.06.22,16.13.34,24.19,0,4,.06,8.06,0,12.11s-.43,8.08-.85,12.09v0l-.19,22.55c-.07,7.52-.11,15,0,22.55s.21,15,.14,22.55-.12,15-.29,22.55Z"/><path class="cls-8" d="M99.3,152.27l2.06-.61c1.34-.41,3.29-1.06,5.7-2.05a71.76,71.76,0,0,0,8.41-4.21,67.85,67.85,0,0,0,9.87-7.14,75.16,75.16,0,0,0,9.92-10.44,86,86,0,0,0,8.65-13.54,69.12,69.12,0,0,0,5.95-16.11,52.2,52.2,0,0,0,1-17.67A43.37,43.37,0,0,0,145,63.84a40.45,40.45,0,0,0-11.66-12.4,33.89,33.89,0,0,0-7.2-3.8c-2.49-.91-5.07-1.56-7.53-2.23-4.92-1.33-9.83-2.38-13.64-5.09a13.08,13.08,0,0,1-4.15-5.08,18.87,18.87,0,0,1-1.55-5.68,74,74,0,0,1-.17-9.47c0-2.62.15-4.67.23-6.07a6.17,6.17,0,0,1,.27-2.11h.08A6.25,6.25,0,0,0,99.53,14c0,1.4,0,3.46,0,6.07a78.87,78.87,0,0,0,.36,9.38c.47,3.52,1.94,7.64,5.59,10.15s8.42,3.61,13.37,4.92c2.49.65,5,1.34,7.61,2.3a34.73,34.73,0,0,1,7.34,4,40.4,40.4,0,0,1,11.64,12.78,44.11,44.11,0,0,1,5.63,16.89,53.44,53.44,0,0,1-.74,17.81,69.5,69.5,0,0,1-5.84,16.3,75.7,75.7,0,0,1-18.79,24.11,68.33,68.33,0,0,1-10,7.09,61,61,0,0,1-8.52,4.09c-2.45.94-4.42,1.55-5.77,1.92l-2.08.56Z"/><path class="cls-8" d="M99.34,152.27l2-.67c1.31-.45,3.21-1.17,5.56-2.24a65.33,65.33,0,0,0,8.13-4.5,60.53,60.53,0,0,0,9.36-7.57,63.49,63.49,0,0,0,8.92-11.08,69.9,69.9,0,0,0,7-14.26,67.71,67.71,0,0,0,3.61-16.59,60.56,60.56,0,0,0-.67-17.53,38.26,38.26,0,0,0-7-15.92,40.76,40.76,0,0,0-12.93-10.76c-4.81-2.68-9.94-4.27-14.59-6.44a21.86,21.86,0,0,1-6.25-4.16,15.18,15.18,0,0,1-3.63-6c-1.42-4.32-1.27-8.52-1.23-12.09s.08-6.75.16-9.33c.15-5.17.34-8.13.34-8.13h.08s-.1,3-.1,8.13c0,2.59,0,5.73,0,9.33s0,7.71,1.41,11.85A14.59,14.59,0,0,0,103,40a21,21,0,0,0,6,4c4.57,2.1,9.75,3.71,14.62,6.5a39.9,39.9,0,0,1,13,11.13,39.4,39.4,0,0,1,6.85,16.21,69.46,69.46,0,0,1,.82,17.63,67.92,67.92,0,0,1-3.46,16.76,63.71,63.71,0,0,1-16.07,25.54A59.16,59.16,0,0,1,107,149.64c-2.39,1-4.32,1.68-5.64,2.1l-2,.62Z"/><path class="cls-8" d="M99.3,152.28l1.92-.76a42.13,42.13,0,0,0,5.17-2.65,55.67,55.67,0,0,0,15.29-13.81A70.5,70.5,0,0,0,129,123.36,75.52,75.52,0,0,0,134.62,109a55.08,55.08,0,0,0,2-16.33,69.06,69.06,0,0,0-.59-8.49c-.23-1.41-.4-2.83-.76-4.22a42.45,42.45,0,0,0-1.08-4.15,47.28,47.28,0,0,0-3.14-7.95,42.56,42.56,0,0,0-4.6-7.1,41.75,41.75,0,0,0-5.83-5.91,44.27,44.27,0,0,0-6.76-4.48c-2.35-1.3-4.68-2.56-6.91-3.9a27.94,27.94,0,0,1-6.1-4.68,15.54,15.54,0,0,1-3.58-6.36,26.85,26.85,0,0,1-1-6.71c-.05-4.33.1-8.26.13-11.76s.12-6.55.17-9.06L96.77,0h.08l0,7.89c0,2.51,0,5.56,0,9.06s-.1,7.46,0,11.74,1.19,9,4.59,12.52,8.18,5.71,12.82,8.39A40.06,40.06,0,0,1,127,60.34a43.19,43.19,0,0,1,4.52,7.29,49.75,49.75,0,0,1,3,8.07,57.58,57.58,0,0,1,1.74,8.43,69.53,69.53,0,0,1,.75,8.51,54.65,54.65,0,0,1-1.86,16.5,70.68,70.68,0,0,1-13.08,26.27,53.9,53.9,0,0,1-15.6,13.7,42.22,42.22,0,0,1-5.27,2.52l-1.94.71Z"/><path class="cls-8" d="M82.68,152.36l-2.08-.56c-1.35-.37-3.32-1-5.77-1.92a60.92,60.92,0,0,1-8.52-4.09,68.33,68.33,0,0,1-10-7.09,75.7,75.7,0,0,1-18.79-24.11,69.5,69.5,0,0,1-5.84-16.3,53.44,53.44,0,0,1-.74-17.81,44.13,44.13,0,0,1,5.63-16.89A40.41,40.41,0,0,1,48.2,50.8a34.73,34.73,0,0,1,7.34-4c2.57-1,5.12-1.64,7.61-2.3,4.94-1.31,9.78-2.36,13.37-4.92S81.64,33,82.11,29.48a79,79,0,0,0,.36-9.38c0-2.62,0-4.67,0-6.07a6.25,6.25,0,0,0-.17-2.12h.08A6.17,6.17,0,0,1,82.66,14c.08,1.4.18,3.46.23,6.07a74.06,74.06,0,0,1-.17,9.47,18.89,18.89,0,0,1-1.55,5.68A13.09,13.09,0,0,1,77,40.32c-3.8,2.71-8.72,3.76-13.64,5.09-2.47.67-5,1.32-7.53,2.23a33.89,33.89,0,0,0-7.2,3.8A40.46,40.46,0,0,0,37,63.84,43.37,43.37,0,0,0,31.2,80.5a52.2,52.2,0,0,0,1,17.67,69.11,69.11,0,0,0,5.95,16.11,86,86,0,0,0,8.65,13.54,75.18,75.18,0,0,0,9.92,10.44,67.86,67.86,0,0,0,9.87,7.14,71.81,71.81,0,0,0,8.41,4.21c2.41,1,4.36,1.65,5.7,2.05l2.06.61Z"/><path class="cls-8" d="M82.64,152.35l-2-.62c-1.32-.42-3.25-1.09-5.64-2.1A59.16,59.16,0,0,1,57.2,137.71a63.72,63.72,0,0,1-16.07-25.54,67.92,67.92,0,0,1-3.46-16.76,69.47,69.47,0,0,1,.82-17.63,39.4,39.4,0,0,1,6.85-16.21,39.91,39.91,0,0,1,13-11.13c4.87-2.79,10.05-4.4,14.62-6.5a21,21,0,0,0,6-4,14.59,14.59,0,0,0,3.54-5.66C84,30.16,83.91,26,83.92,22.45s0-6.74,0-9.33c0-5.17-.1-8.13-.1-8.13h.08s.19,3,.34,8.13c.09,2.59.12,5.73.16,9.33s.19,7.77-1.23,12.09a15.18,15.18,0,0,1-3.63,6,21.86,21.86,0,0,1-6.25,4.16c-4.65,2.17-9.78,3.76-14.59,6.44A40.76,40.76,0,0,0,45.8,61.93a38.26,38.26,0,0,0-7,15.92,60.56,60.56,0,0,0-.67,17.53A67.71,67.71,0,0,0,41.73,112a69.92,69.92,0,0,0,7,14.26A63.49,63.49,0,0,0,57.6,137.3,60.53,60.53,0,0,0,67,144.87a65.25,65.25,0,0,0,8.13,4.5c2.35,1.07,4.25,1.78,5.56,2.24l2,.67Z"/><path class="cls-8" d="M82.68,152.35l-1.94-.71a42.23,42.23,0,0,1-5.27-2.52,53.91,53.91,0,0,1-15.6-13.7,70.68,70.68,0,0,1-13.08-26.27,54.64,54.64,0,0,1-1.86-16.5,69.49,69.49,0,0,1,.75-8.51,57.55,57.55,0,0,1,1.74-8.43,49.69,49.69,0,0,1,3-8.07A43.16,43.16,0,0,1,55,60.34,40.05,40.05,0,0,1,67.68,49.6c4.65-2.68,9.48-4.88,12.82-8.39s4.38-8.3,4.59-12.52,0-8.24,0-11.74,0-6.55,0-9.06l0-7.89h.08l.17,7.89c0,2.51.1,5.56.17,9.06s.18,7.43.13,11.76a26.89,26.89,0,0,1-1,6.71,15.54,15.54,0,0,1-3.58,6.36A28,28,0,0,1,75,46.47c-2.24,1.34-4.56,2.6-6.91,3.9a44.28,44.28,0,0,0-6.76,4.48,41.75,41.75,0,0,0-5.83,5.91,42.59,42.59,0,0,0-4.6,7.1,47.31,47.31,0,0,0-3.14,7.95A42.31,42.31,0,0,0,46.7,80c-.36,1.39-.54,2.81-.76,4.22a69,69,0,0,0-.59,8.49,55.06,55.06,0,0,0,2,16.33A75.5,75.5,0,0,0,53,123.36a70.52,70.52,0,0,0,7.36,11.69,55.66,55.66,0,0,0,15.29,13.81,42.13,42.13,0,0,0,5.17,2.65l1.92.76Z"/></g><path class="cls-5" d="M57.29,115,0,79.09s.42,17.57,2.51,34c2.21,17.45,16.22,32,38.64,28.43,14.06-2.25,18.56-11,20-17.26A8.69,8.69,0,0,0,57.29,115Z"/><path class="cls-2" d="M3.43,83.65s2.88,33.41,22.3,41.91,31.36-1.69,31.36-6.8Z"/></g></g></svg>