<svg xmlns="http://www.w3.org/2000/svg" viewBox="0 0 130.57 129.07"><defs><style>.cls-1{fill:#faae5b;}.cls-2{fill:#fdcc95;}.cls-3{fill:#f8a045;}.cls-4{fill:#e1923f;}</style></defs><title>onion</title><g id="Layer_2" data-name="Layer 2"><g id="Layer_1-2" data-name="Layer 1"><path class="cls-1" d="M123,54.61C114.71,42.35,101.09,35,89.1,26.37c-9.29-6.72-18.28-15.49-22-26H63.47c-3.73,10.49-12.71,19.26-22,26-12,8.67-25.61,16-33.9,28.24a46.05,46.05,0,0,0-1.76,47.68c8.35,14.53,30.44,26.38,59.48,26.38s51.13-11.85,59.48-26.38A46.05,46.05,0,0,0,123,54.61Z"/><circle class="cls-2" cx="27.35" cy="75.88" r="11.35"/><path class="cls-3" d="M123,54.61C114.71,42.35,101.09,35,89.1,26.37c-9.29-6.72-18.28-15.49-22-26H63.47c0,44.42,29.71,41.64,34.9,72.19,5.44,32-22.92,53.84-71,48.13,10.27,4.9,23.2,8,37.93,8,29,0,51.13-11.85,59.48-26.38A46.05,46.05,0,0,0,123,54.61Z"/><path class="cls-4" d="M111.37,54.63c-.74-1.29-1.48-2.57-2.32-3.79s-1.69-2.43-2.63-3.58-1.89-2.28-2.89-3.37-2-2.14-3.1-3.18C96.18,36.59,91.53,32.9,87,29A81.18,81.18,0,0,1,74.6,16.28,48.9,48.9,0,0,1,66.37.49l.36.27h-2.9L64.2.48A48.89,48.89,0,0,1,56,16.28,81,81,0,0,1,43.6,29c-4.49,3.87-9.13,7.56-13.38,11.68A58.68,58.68,0,0,0,19.31,54.61a51.8,51.8,0,0,0-3.42,8.16,57.23,57.23,0,0,0-2,8.63A58.1,58.1,0,0,0,14.09,89a50,50,0,0,0,2.14,8.57,39.53,39.53,0,0,0,3.68,8A42.7,42.7,0,0,0,32,118.28a52.86,52.86,0,0,0,15.86,7.54,63.38,63.38,0,0,0,34.86,0,53.2,53.2,0,0,0,15.85-7.53,42.63,42.63,0,0,0,12.11-12.63,39.2,39.2,0,0,0,3.7-8,49.59,49.59,0,0,0,2.16-8.56,57.57,57.57,0,0,0-1.73-26.3A52.56,52.56,0,0,0,111.37,54.63Zm.07,0a52.69,52.69,0,0,1,3.49,8.17,57.84,57.84,0,0,1,2,26.41,50.16,50.16,0,0,1-2.08,8.67,39.76,39.76,0,0,1-3.66,8.14A43.37,43.37,0,0,1,99,119a53.7,53.7,0,0,1-16.11,7.64,64.19,64.19,0,0,1-35.31,0,53.65,53.65,0,0,1-16.08-7.67,43.14,43.14,0,0,1-12.17-13,40.12,40.12,0,0,1-3.65-8.14,50.46,50.46,0,0,1-2.08-8.67,58.71,58.71,0,0,1,0-17.77,57.64,57.64,0,0,1,2-8.67,52.09,52.09,0,0,1,3.49-8.19A60.17,60.17,0,0,1,30,40.46c4.23-4.17,8.85-7.9,13.31-11.79A80.54,80.54,0,0,0,55.5,15.91a48.21,48.21,0,0,0,8-15.63L63.56,0H67l.08.28a48.23,48.23,0,0,0,8,15.65A80.68,80.68,0,0,0,87.3,28.73c4.46,3.9,9.08,7.64,13.31,11.81,1.05,1,2.09,2.11,3.08,3.21s2,2.22,2.87,3.4,1.78,2.37,2.6,3.61S110.72,53.29,111.45,54.59Z"/><path class="cls-4" d="M98.74,54.62c-.52-1.22-1-2.45-1.62-3.64s-1.19-2.37-1.86-3.52a66,66,0,0,0-4.39-6.64c-3.18-4.26-6.78-8.18-10.21-12.25a73.66,73.66,0,0,1-9.12-13.12,59.58,59.58,0,0,1-3.32-7.29c-.47-1.25-.89-2.52-1.27-3.81s-.7-2.59-1-3.89l.37.3h-2.1l.37-.3c-2.18,10.47-7.64,20-14.52,28-3.4,4.06-7,7.95-10.15,12.17a59.64,59.64,0,0,0-7.87,13.67,64,64,0,0,0-3.8,15.32,79.65,79.65,0,0,0-.42,15.79,68.43,68.43,0,0,0,2.84,15.5A41.76,41.76,0,0,0,38,114.75a36.69,36.69,0,0,0,12,9.87,33.91,33.91,0,0,0,30.24.15,36.77,36.77,0,0,0,6.59-4.21,41,41,0,0,0,13-19.29,67.47,67.47,0,0,0,3-15.49,79.22,79.22,0,0,0-.32-15.8A64.93,64.93,0,0,0,98.74,54.62Zm.08,0A65.07,65.07,0,0,1,102.66,70a79.54,79.54,0,0,1,.49,15.86,68.08,68.08,0,0,1-2.77,15.64A41.9,41.9,0,0,1,93,115.54a40.79,40.79,0,0,1-5.65,5.67,37.52,37.52,0,0,1-6.75,4.3,34.71,34.71,0,0,1-31-.19,37.47,37.47,0,0,1-12.29-10.09,42.22,42.22,0,0,1-7.27-14.13,69,69,0,0,1-2.72-15.65,80.56,80.56,0,0,1,.53-15.87,64.28,64.28,0,0,1,3.92-15.37,61.45,61.45,0,0,1,7.81-13.8c3.14-4.27,6.7-8.2,10.06-12.27a72.94,72.94,0,0,0,8.86-13.05A55.64,55.64,0,0,0,63.87.31l.06-.3h2.72l.06.31q.4,1.94.93,3.85c.37,1.27.77,2.53,1.21,3.77a59.1,59.1,0,0,0,3.2,7.25A73.17,73.17,0,0,0,81,28.32c3.38,4.1,6.95,8.06,10.09,12.36a66.28,66.28,0,0,1,4.34,6.7q1,1.73,1.83,3.55C97.81,52.13,98.31,53.36,98.82,54.59Z"/><path class="cls-4" d="M85.37,54.62A78,78,0,0,0,80.67,41c-2-4.4-4.32-8.62-6.5-12.93A84,84,0,0,1,65.54.43l.37.33H64.65L65,.43a84.06,84.06,0,0,1-8.27,27c-2.1,4.23-4.39,8.34-6.36,12.61a75.14,75.14,0,0,0-4.76,13.25,92.2,92.2,0,0,0-2.3,13.9,131.93,131.93,0,0,0-.56,14.09,125.75,125.75,0,0,0,1,14.05,71.15,71.15,0,0,0,3,13.72,44.8,44.8,0,0,0,2.66,6.48,32.34,32.34,0,0,0,3.72,5.89c2.81,3.63,6.88,6.59,11.5,6.8s8.93-2.29,12-5.75a33.83,33.83,0,0,0,4-5.72,49.5,49.5,0,0,0,2.84-6.39,68.09,68.09,0,0,0,3.28-13.64,123.17,123.17,0,0,0,1.16-14A116.67,116.67,0,0,0,85.37,54.62Zm.08,0a116.94,116.94,0,0,1,2.77,28.08,124,124,0,0,1-1,14.12,68.81,68.81,0,0,1-3.11,13.83,38.39,38.39,0,0,1-7,12.38,19.59,19.59,0,0,1-5.61,4.47,13.65,13.65,0,0,1-7,1.54,14.16,14.16,0,0,1-6.82-2.25,21,21,0,0,1-5.25-4.87,33.11,33.11,0,0,1-3.8-6A45.58,45.58,0,0,1,46,109.28,70.7,70.7,0,0,1,43.14,95.4a126.39,126.39,0,0,1-.85-14.13,113.43,113.43,0,0,1,3.08-28.06,79.14,79.14,0,0,1,4.68-13.34c1.93-4.31,4.19-8.45,6.24-12.68a83.5,83.5,0,0,0,8-26.86l0-.33h1.92l0,.33c.17,1.19.31,2.38.51,3.57s.41,2.37.66,3.54q.73,3.53,1.77,7a85.41,85.41,0,0,0,5.31,13.41c2.12,4.33,4.43,8.58,6.36,13A78.17,78.17,0,0,1,85.45,54.6Z"/><path class="cls-4" d="M72.42,54.61c-.42-4.54-1-9.06-1.71-13.56s-1.64-9-2.46-13.45-1.5-9-2-13.54S65.32,5,65.14.4l.37.35h-.45L65.43.4a209.3,209.3,0,0,1-2.81,25.73L60.28,38.84c-.73,4.24-1.36,8.51-1.76,12.79-.8,8.58-1.07,17.2-1.1,25.81s.25,17.23.93,25.81A126.32,126.32,0,0,0,60,116a57.59,57.59,0,0,0,1.47,6.24c.64,2,1.36,4.14,2.77,5.51a1.54,1.54,0,0,0,2.33-.14,8.51,8.51,0,0,0,1.61-2.6,35.66,35.66,0,0,0,1.87-6.1,107.41,107.41,0,0,0,1.92-12.72c.85-8.56,1.16-17.17,1.26-25.79S73.06,63.2,72.42,54.61Zm.08,0c.75,8.59,1,17.21,1.1,25.83s-.13,17.26-.84,25.87a104.46,104.46,0,0,1-1.95,12.83,36.45,36.45,0,0,1-1.93,6.24,9.24,9.24,0,0,1-1.79,2.85,3.27,3.27,0,0,1-.73.55,2.22,2.22,0,0,1-.92.28,2.39,2.39,0,0,1-1.77-.66c-1.7-1.68-2.32-3.84-3-5.89a58.37,58.37,0,0,1-1.49-6.33,127,127,0,0,1-1.59-12.87c-.61-8.61-.74-17.24-.65-25.87s.44-17.25,1.31-25.83c.43-4.29,1-8.57,1.67-12.83L62.13,26A209.44,209.44,0,0,0,64.69.37V0h1.16l0,.36c.23,4.55.49,9.09,1,13.62s1.05,9,1.82,13.54S70.28,36.5,71,41,72.14,50.06,72.5,54.6Z"/></g></g></svg>