<svg xmlns="http://www.w3.org/2000/svg" viewBox="0 0 146.19 121.56"><defs><style>.cls-1{fill:#528a34;}.cls-2{fill:#4c8130;}.cls-3{fill:#64a13e;}.cls-4{fill:#68bc45;}.cls-5{fill:#5d983a;}.cls-6{fill:#578f37;}.cls-7{fill:#6daf44;}.cls-8{fill:#87c55b;}</style></defs><title>peas</title><g id="Layer_2" data-name="Layer 2"><g id="Layer_1-2" data-name="Layer 1"><path class="cls-1" d="M131.68,15.24c-7.41.82-31,24.74-60.11,46.61-22.25,16.72-39,24.7-50.2,22.13S3.85,73.35,0,65.63c0,0,11.3-2.57,44.52-25.37,11.38-7.81,35.37-27.58,42-32.68C113.24-13.16,131.68,15.24,131.68,15.24Z"/><path class="cls-2" d="M88.14,6.37a40,40,0,0,1,17,.44,8.25,8.25,0,0,1,3.07,14.41C103.81,24.71,98,29.54,90.7,35.92,52,69.8,30.54,80.32,15.77,82.09A29.11,29.11,0,0,0,21.37,84c11.16,2.57,28-5.41,50.2-22.13,29.11-21.88,52.7-45.79,60.11-46.61C131.68,15.24,114-12,88.14,6.37Z"/><ellipse class="cls-3" cx="28.01" cy="67.92" rx="8.97" ry="8.43" transform="translate(-33.77 28.17) rotate(-34.83)"/><ellipse class="cls-3" cx="48.2" cy="57.99" rx="8.97" ry="8.43" transform="translate(-24.48 37.92) rotate(-34.83)"/><ellipse class="cls-3" cx="66.61" cy="44.59" rx="8.97" ry="8.43" transform="matrix(0.82, -0.57, 0.57, 0.82, -13.53, 46.03)"/><ellipse class="cls-3" cx="84.95" cy="29.65" rx="8.97" ry="8.43" transform="translate(-1.72 53.83) rotate(-34.83)"/><ellipse class="cls-3" cx="103.73" cy="15.24" rx="8.97" ry="8.43" transform="translate(9.88 61.97) rotate(-34.83)"/><ellipse class="cls-4" cx="25.3" cy="67.52" rx="3.9" ry="3.66" transform="translate(-34.03 26.55) rotate(-34.83)"/><ellipse class="cls-4" cx="45.74" cy="56.93" rx="3.9" ry="3.66" transform="translate(-24.32 36.32) rotate(-34.83)"/><ellipse class="cls-4" cx="63.61" cy="44.5" rx="3.9" ry="3.66" transform="translate(-14.02 44.3) rotate(-34.83)"/><ellipse class="cls-4" cx="81.61" cy="29.68" rx="3.9" ry="3.66" transform="translate(-2.33 51.93) rotate(-34.83)"/><ellipse class="cls-4" cx="101.19" cy="14.71" rx="3.9" ry="3.66" transform="translate(9.73 60.43) rotate(-34.83)"/><path class="cls-5" d="M146.19,16.44C139.61,20,126.58,50.92,107.66,82c-14.46,23.78-27.09,37.42-38.41,39.17S49,117.83,42.6,112.09c0,0,9.54-6.58,31.93-40.08,7.67-11.47,22.62-38.74,26.84-45.92C118.53-3.09,146.19,16.44,146.19,16.44Z"/><path class="cls-6" d="M102.47,24.36a40,40,0,0,1,15.91-5.88,8.25,8.25,0,0,1,8.2,12.24c-2.75,4.86-6.37,11.51-10.76,20.13-23.35,45.8-39.4,63.55-52.46,70.67a29.1,29.1,0,0,0,5.9-.31c11.32-1.76,23.95-15.4,38.41-39.17C126.58,50.92,139.61,20,146.19,16.44,146.19,16.44,119.68-2.25,102.47,24.36Z"/><ellipse class="cls-7" cx="69.47" cy="103.82" rx="8.97" ry="8.43" transform="translate(-55.45 104.68) rotate(-56.61)"/><ellipse class="cls-7" cx="84.53" cy="87.11" rx="8.97" ry="8.43" transform="translate(-34.72 109.74) rotate(-56.61)"/><ellipse class="cls-7" cx="96.65" cy="67.84" rx="8.97" ry="8.43" transform="translate(-13.18 111.2) rotate(-56.61)"/><ellipse class="cls-7" cx="108.14" cy="47.16" rx="8.97" ry="8.43" transform="translate(9.25 111.49) rotate(-56.61)"/><ellipse class="cls-7" cx="120.23" cy="26.81" rx="8.97" ry="8.43" transform="translate(31.67 112.44) rotate(-56.61)"/><ellipse class="cls-8" cx="66.8" cy="104.46" rx="3.9" ry="3.66" transform="translate(-57.18 102.73) rotate(-56.61)"/><ellipse class="cls-8" cx="81.85" cy="87.05" rx="3.9" ry="3.66" transform="translate(-35.87 107.47) rotate(-56.61)"/><ellipse class="cls-8" cx="93.83" cy="68.87" rx="3.9" ry="3.66" transform="translate(-15.31 109.31) rotate(-56.61)"/><ellipse class="cls-8" cx="105.06" cy="48.43" rx="3.9" ry="3.66" transform="translate(6.8 109.49) rotate(-56.61)"/><ellipse class="cls-8" cx="117.68" cy="27.26" rx="3.9" ry="3.66" transform="matrix(0.55, -0.83, 0.83, 0.55, 30.15, 110.51)"/></g></g></svg>