<svg xmlns="http://www.w3.org/2000/svg" viewBox="0 0 141.94 122.75"><defs><style>.cls-1{fill:#e12727;}.cls-2{fill:#e55d42;}.cls-3{fill:#cc2322;}.cls-4{fill:#37b34a;}.cls-5{fill:#31a444;}</style></defs><title>pepper</title><g id="Layer_2" data-name="Layer 2"><g id="Layer_1-2" data-name="Layer 1"><path class="cls-1" d="M1.92,95.82a2.16,2.16,0,0,1-.27-4.24c11.61-2.74,25-9.57,32.46-15.17C43,69.81,47.95,59,51.59,49.9c2.31-5.75,5.79-19,8.13-24.78,3.26-8.07,14.4-18,26.4-7.33,7.68,6.81,3,23.14.22,29.55-7.68,18-22.6,38.38-42.52,44C25.44,96.6,11.44,96.89,1.92,95.82Z"/><path class="cls-2" d="M43.11,76.78c7.73-6.28,14.63-15.7,19-26.62,1.22-3,2.64-7.69,4.15-12.63,1.41-4.63,2.79-9.44,4-12.15,3-6.89,5.65-7.92,5.65-7.92-6-.4-10.67,5.47-12.21,9.26-1.11,2.74-2.57,7.52-4,12.15-1.51,4.94-3,9.57-4.15,12.63C46,77.35,24.64,85.77,19.33,87.17A50.6,50.6,0,0,0,43.11,76.78Z"/><path class="cls-3" d="M86.34,47.35c2.74-6.41,7.46-22.74-.22-29.55a16.83,16.83,0,0,0-9.52-4.57h0c9.85,2.86,5.51,23.44-2.32,39.45C61,79.78,29.79,96.74,0,93.94a2.09,2.09,0,0,0,1.89,1.88c9.53,1.07,23.53.77,41.91-4.45C63.74,85.72,78.66,65.32,86.34,47.35Z"/><path class="cls-4" d="M83.35,23.29a6.84,6.84,0,0,0-2.59-3.53,6,6,0,0,1-2.45-3.2c.33,4.14-7.18,4.49-7.18,4.49a4,4,0,0,0,.81-3.23c-.24-2.2.72-2.76.72-2.76l-2.94.22a6.76,6.76,0,0,1-4.78-1.44,7.56,7.56,0,0,0,3.64-.52C72,12.08,74.15,11,78.66,11.25c3.93.21,9.23,3.54,11.05,9.7-.55-.84-2.22-.86-3.78-1.52a8.7,8.7,0,0,1-2.17-1.72S84.81,19.87,83.35,23.29Z"/><path class="cls-5" d="M89.72,21a13.46,13.46,0,0,0-10.1-9.56v0a7.37,7.37,0,0,1,2-6.53,8.33,8.33,0,0,1,3.69-2.46S86.39.8,83.91,0c-7.28,2.82-6.17,11.19-6.17,11.19v0c1.71,5.28-4.31,7.22-4.31,7.22a5.25,5.25,0,0,1-.78-3.4,1.41,1.41,0,0,0-.39.46,3.69,3.69,0,0,0-.33,2.3A4,4,0,0,1,71.13,21s7.51-.36,7.18-4.49a6,6,0,0,0,2.45,3.2,6.84,6.84,0,0,1,2.59,3.53c1.46-3.42.42-5.58.42-5.58a8.7,8.7,0,0,0,2.17,1.72C87.49,20.09,89.17,20.11,89.72,21Z"/><path class="cls-1" d="M9.14,116.67a2.83,2.83,0,0,1,.8-5.51c15.62-.37,34.58-5.54,45.72-10.68C68.8,94.4,78.12,81.83,85.24,71.2c4.51-6.74,12.56-22.79,17.12-29.58,6.37-9.47,23.32-19.15,35.82-2.27,8,10.81-2.45,30.47-7.69,38-14.7,21-39.35,43.1-66.4,45C39.1,124,21.06,120.61,9.14,116.67Z"/><path class="cls-2" d="M67.1,103.38c11.61-6,23-16.18,31.58-29,2.38-3.55,5.46-9.14,8.73-15.07,3.06-5.55,6.13-11.36,8.38-14.5,5.75-8,9.39-8.63,9.39-8.63C117.59,34.06,110,40.32,107,44.76c-2.16,3.21-5.32,8.95-8.38,14.5-3.27,5.92-6.45,11.45-8.73,15.07C70.67,104.89,41,109.91,33.81,110.27A66.31,66.31,0,0,0,67.1,103.38Z"/><path class="cls-3" d="M130.49,77.31c5.25-7.48,15.7-27.15,7.69-38-3.43-4.62-7.19-7.24-11-8.43h0c11.86,6.32.74,31.55-13.63,50C89.23,112,44.63,125.37,7.22,113.74a2.74,2.74,0,0,0,1.92,2.93c11.93,3.95,30,7.35,54.94,5.62C91.14,120.41,115.78,98.28,130.49,77.31Z"/><path class="cls-4" d="M133.15,45.65a9,9,0,0,0-2.36-5.22,7.82,7.82,0,0,1-2.28-4.77c-.7,5.4-10.42,3.82-10.42,3.82A5.22,5.22,0,0,0,120,35.55c.28-2.88,1.66-3.35,1.66-3.35l-3.83-.51a8.86,8.86,0,0,1-5.74-3.14,9.91,9.91,0,0,0,4.81.32c4.74-.65,7.77-1.45,13.49.08,5,1.33,10.87,7,11.55,15.42-.48-1.22-2.62-1.7-4.44-3a11.41,11.41,0,0,1-2.32-2.79S135.94,41.66,133.15,45.65Z"/><path class="cls-5" d="M141.94,44.37c-.63-7.74-5.68-13.14-10.37-15v0a9.66,9.66,0,0,1,4.28-7.85c3.22-2.15,5.4-2.15,5.4-2.15s1.86-1.72-1.11-3.41c-10.1,1.64-10.93,12.68-10.93,12.68s0,0,0,.06c.77,7.23-7.48,8.09-7.48,8.09a6.88,6.88,0,0,1-.08-4.56,1.85,1.85,0,0,0-.63.48,4.83,4.83,0,0,0-1,2.86,5.23,5.23,0,0,1-1.91,3.93s9.72,1.57,10.42-3.82a7.82,7.82,0,0,0,2.28,4.77,9,9,0,0,1,2.36,5.22c2.8-4,2-7,2-7a11.41,11.41,0,0,0,2.32,2.79C139.32,42.67,141.46,43.15,141.94,44.37Z"/></g></g></svg>