<svg xmlns="http://www.w3.org/2000/svg" viewBox="0 0 122.14 211.23"><defs><style>.cls-1{fill:#00873e;}.cls-2{fill:#007b38;}.cls-3{fill:#31a444;}.cls-4{fill:#dd1f3b;}.cls-5{fill:#e25a56;}.cls-6{fill:#c91a35;}</style></defs><title>radish</title><g id="Layer_2" data-name="Layer 2"><g id="Layer_1-2" data-name="Layer 1"><path class="cls-1" d="M65.33,53.44c5.16-1.3,10.12-7.59,5.82-13.9C76,38.62,80.31,29.69,73,25.6c4.92-.72,7.87-11.95-.91-13.69,0,0,2.48-7.12-3.48-10.66C61.48-3,56.78,4.88,56.78,4.88c-6.47-6.61-17.67-.63-14.72,9.35-12.21.33-11.91,15.2-5.28,16.65-11.15,7.21-4.66,16.12.76,17.47-9.25,8.06,1.62,12.88,5.18,16.57,1.09,1.13,2.12,2.17,4.06,7.23,2.44,6.38,8.28,4.95,9.53-1.12C58.06,62.47,69.19,61.78,65.33,53.44Z"/><path class="cls-2" d="M60.38,16.7S47.55,39.79,48.75,112.31A103.75,103.75,0,0,0,50.09,125a1.36,1.36,0,0,0,2.72-.23c-.44-9.62-.44-43.6.7-56.83C56.44,33.76,60.38,16.7,60.38,16.7Z"/><path class="cls-3" d="M91.9,87C97,88.49,104.47,85.58,103.95,78c4.65,1.66,12.87-3.88,8.61-11.12,4.61,1.86,12.83-6.33,6.14-12.27,0,0,5.74-4.88,2.39-11-4-7.23-12-2.83-12-2.83-2.25-9-14.93-9.48-17.43.63-10.7-5.89-18,7.09-13,11.7-13.27.59-12.17,11.56-8.18,15.46-12.06,2.28-5.12,11.93-3.91,16.91.37,1.52.74,2.95-.15,8.28-1.12,6.73,4.64,8.46,8.79,3.85C81.06,91.13,91,96.15,91.9,87Z"/><path class="cls-1" d="M106,51.43S77.58,74.3,58.66,113.92c-2.18,4.57-4,8.51-5.39,11.91a1.4,1.4,0,0,0,2.52,1.2c4.59-8.72,7.48-15.24,14.53-26.84C88.52,70.19,106,51.43,106,51.43Z"/><path class="cls-3" d="M21.38,85.75c-4.74.46-10.83-3.33-9.11-9.95-4.36.69-10.69-5.53-5.75-11.2-4.36.88-10.25-7.68-3.38-11.8,0,0-4.25-5.24-.29-10,4.7-5.71,11-.51,11-.51,3.45-7.52,14.69-5.88,15.23,3.42,10.39-3.42,14.64,9.2,9.48,12.42C50.18,60.8,47.41,70.27,43.25,73c10.23,4,2.54,11.34.65,15.52-.58,1.28-1.13,2.47-1.23,7.31-.12,6.11-5.48,6.67-8.37,1.94C30.24,91.15,20.65,93.94,21.38,85.75Z"/><path class="cls-1" d="M14.86,52.13S36.07,76.92,46.19,114.9c1.17,4.38,2.08,8.14,2.78,11.37a1.25,1.25,0,0,1-2.41.64c-2.6-8.42-4.07-14.64-8.36-26C27.13,71.5,14.86,52.13,14.86,52.13Z"/><path class="cls-4" d="M11.79,152.17c-.81,13.67,5.71,21.61,12.1,27.76S41,189.12,44.8,195.4c3.13,5.09.49,13.41-5.64,15.83A15.44,15.44,0,0,0,49,206.92a34.26,34.26,0,0,0,7.11-9.32c3-5.39,7.06-7.57,10.62-9.91,9.27-6.09,11.77-6,18.13-13,9.67-10.69,16.78-51.41-34.65-51.41C23.89,123.29,12.65,137.58,11.79,152.17Z"/><circle class="cls-5" cx="35.92" cy="148.13" r="8.61"/><path class="cls-6" d="M52.59,123.35c33.31,8.48,26.31,42.15,17.65,52.43-13,15.45-28.44,14.53-31.9,13.7a20.08,20.08,0,0,1,6.46,5.92c3.13,5.09.49,13.41-5.64,15.83A15.44,15.44,0,0,0,49,206.92a34.26,34.26,0,0,0,7.11-9.32c3-5.39,7.06-7.57,10.62-9.91,9.27-6.09,11.77-6,18.13-13C94.36,164.18,101.36,124.61,52.59,123.35Z"/></g></g></svg>