<svg xmlns="http://www.w3.org/2000/svg" viewBox="0 0 126.56 201.12"><defs><style>.cls-1{fill:#308037;}.cls-2{fill:#dccdb8;}.cls-3{fill:#3c9240;}.cls-4{fill:#6daf44;}.cls-5{fill:#ffecd2;}.cls-6{fill:#609e3e;}</style></defs><title>salad</title><g id="Layer_2" data-name="Layer 2"><g id="Layer_1-2" data-name="Layer 1"><path class="cls-1" d="M66.44,19.19c0-1.17,6.44-3.31,7.83,3.07a10,10,0,0,1-1.71,7.43,11.88,11.88,0,0,1,6.66,8.53,12.55,12.55,0,0,1-3,10.61,11.42,11.42,0,0,1,4.22,9.3,11.8,11.8,0,0,1-5,9.06c2.49,1.59,4.27,9.14-3.52,13.55,0,0,8.3,8.6-2.86,19.92-5.39,5.46-5.58,5.78-10.95,15.7-1.4,2.59-2.31,4-4.77,4.06-1.8.07-3.16-1.31-4-2.94-2.53-5-4.09-7.6-9.78-12.46-3.23-2.76-6.07-5.59-7.88-9.44-2.06-4.38-.44-9.72,2.53-11.81a9.51,9.51,0,0,1-7.83-6c-1.11-2.95-.56-6.68,2.08-8.39-4.62-1.27-8.5-8.31-7.43-13.12a12.27,12.27,0,0,1,7-8.5c-2.53-1.69-4.93-5.2-4.71-8.61.3-4.5,3.48-9.48,9.5-9.81-2.26-1.64-4.29-6.21-2.34-9.81a8,8,0,0,1,9-4S40.48.64,52,0C61.28-.48,66,7.34,66.44,19.19Z"/><path class="cls-2" d="M52.67,22.67s-3.63,76.28-3,97.77c.7,25.83,2.68,51.46,2.68,51.46l12.84,11,0-15s-6.24-40.43-8.54-68.61C54.9,78.17,52.67,22.67,52.67,22.67Z"/><polygon class="cls-2" points="40.27 33.31 51.21 47.46 51.22 47.47 52.45 48.64 53.27 47.39 62.3 33.56 51.16 45.76 53.2 45.68 53.2 45.67 40.27 33.31"/><path class="cls-2" d="M35.77,49.86c1.18,1.42,2.45,2.73,3.71,4.06s2.57,2.59,3.89,3.84c2.63,2.52,5.35,4.93,8.11,7.29l1,.83L53.3,65c1.18-1.3,2.39-2.56,3.55-3.88s2.33-2.62,3.45-4,2.24-2.71,3.33-4.09,2.15-2.79,3.15-4.26C65.37,49.83,64,51,62.71,52.14s-2.62,2.34-3.89,3.56S56.29,58.14,55,59.37s-2.45,2.51-3.67,3.77L53.2,63c-2.76-2.37-5.56-4.68-8.46-6.89C43.3,55,41.83,54,40.35,52.9S37.35,50.81,35.77,49.86Z"/><path class="cls-2" d="M36.33,70.21c1.2,1.1,2.46,2.11,3.72,3.11s2.55,2,3.86,2.9,2.62,1.86,3.94,2.77,2.68,1.76,4,2.65l.87.57.77-.74c2.46-2.37,4.87-4.79,7.18-7.31,1.16-1.25,2.3-2.54,3.41-3.84s2.2-2.63,3.22-4c-1.44,1-2.79,2-4.15,3.08s-2.66,2.16-4,3.28c-2.6,2.23-5.1,4.55-7.55,6.93l1.63-.17c-1.37-.83-2.72-1.7-4.11-2.51S46.42,75.26,45,74.5,42.17,73,40.74,72.25,37.84,70.83,36.33,70.21Z"/><path class="cls-2" d="M39,86.82c1,1.11,2,2.16,3,3.19s2.1,2,3.19,3S47.43,95,48.54,95.9s2.24,1.86,3.36,2.78l.86.7.87-.78c1.1-1,2.13-2.06,3.2-3.09s2.07-2.12,3.08-3.21,2-2.21,2.94-3.35,1.89-2.31,2.74-3.56c-1.29.79-2.49,1.68-3.69,2.57s-2.35,1.83-3.49,2.78S56.15,92.66,55,93.65s-2.19,2-3.24,3l1.73-.08c-1.16-.88-2.29-1.79-3.48-2.63s-2.35-1.71-3.56-2.53S44.07,89.83,42.83,89,40.34,87.51,39,86.82Z"/><path class="cls-3" d="M58.14,22.79c0-1.22-6.78-3.25-8,3.41a10.38,10.38,0,0,0,2,7.66,12.33,12.33,0,0,0-6.67,9,13,13,0,0,0,3.46,10.93,11.86,11.86,0,0,0-4.11,9.77,12.25,12.25,0,0,0,5.41,9.26c-2.54,1.72-4.16,9.61,4,14,0,0-8.36,9.17,3.55,20.59,5.75,5.51,6,5.84,11.82,16,1.53,2.65,2.51,4.05,5.07,4.08,1.87,0,3.24-1.46,4.05-3.17,2.48-5.26,4-8,9.78-13.22,3.27-3,6.13-6,7.9-10,2-4.6.17-10.1-3-12.19a9.87,9.87,0,0,0,7.95-6.46c1.07-3.09.39-6.95-2.41-8.65,4.76-1.45,8.58-8.87,7.33-13.83a12.73,12.73,0,0,0-7.52-8.61c2.58-1.83,5-5.54,4.64-9.07-.44-4.66-3.88-9.74-10.14-9.91,2.3-1.77,4.27-6.57,2.15-10.25A8.29,8.29,0,0,0,86,18.25S84.54,2.78,72.61,2.48C62.92,2.23,58.22,10.48,58.14,22.79Z"/><path class="cls-2" d="M72.53,26s8.68,82.16,6.67,104.39c-2.39,26.43-10.49,59.32-10.49,59.32l-6.05,8.08-2.84-22.45s9.27-40.41,10.84-69.72C71.84,83.66,72.53,26,72.53,26Z"/><polygon class="cls-2" points="85.71 36.68 74.77 51.68 74.76 51.69 73.52 52.95 72.63 51.67 62.86 37.58 74.77 49.92 72.65 49.9 72.66 49.88 85.71 36.68"/><path class="cls-2" d="M90.86,53.72c-1.18,1.5-2.46,2.91-3.73,4.32s-2.59,2.76-3.92,4.1c-2.65,2.69-5.4,5.28-8.2,7.81l-1,.89-.91-.94c-1.26-1.31-2.56-2.59-3.8-3.92s-2.49-2.65-3.69-4-2.4-2.75-3.58-4.14S59.72,55,58.65,53.48c1.49,1.08,2.91,2.24,4.33,3.4s2.79,2.36,4.14,3.58,2.69,2.46,4,3.7,2.61,2.54,3.92,3.8l-1.9,0c2.79-2.54,5.64-5,8.58-7.4,1.46-1.2,3-2.36,4.47-3.5S89.25,54.76,90.86,53.72Z"/><path class="cls-2" d="M90.87,74.86C89.65,76,88.38,77.12,87.1,78.2s-2.59,2.12-3.92,3.12-2.67,2-4,3-2.73,1.91-4.09,2.86l-.88.62L73.38,87c-2.62-2.39-5.19-4.83-7.67-7.37-1.24-1.27-2.46-2.57-3.65-3.88s-2.36-2.67-3.46-4.1c1.52,1,3,2,4.4,3.07s2.83,2.16,4.2,3.29c2.76,2.23,5.43,4.57,8,7l-1.7-.12c1.4-.9,2.77-1.85,4.19-2.72s2.82-1.77,4.27-2.6,2.9-1.66,4.36-2.46S89.33,75.54,90.87,74.86Z"/><path class="cls-2" d="M88.56,92.18c-1,1.18-2,2.3-3.06,3.4s-2.12,2.18-3.22,3.21-2.2,2.08-3.32,3.09-2.27,2-3.41,3l-.87.75-.92-.79c-1.17-1-2.27-2.07-3.41-3.11s-2.21-2.14-3.29-3.24-2.13-2.23-3.15-3.39-2-2.35-2.95-3.62c1.36.78,2.63,1.67,3.91,2.56s2.49,1.83,3.7,2.78,2.4,1.93,3.57,2.93,2.34,2,3.45,3.06l-1.79,0c1.17-1,2.33-1.92,3.54-2.83s2.39-1.85,3.62-2.73,2.47-1.75,3.73-2.61S87.22,92.93,88.56,92.18Z"/><path class="cls-4" d="M43.18,50c-.16-1.21,6.32-4.08,8.4,2.38a10.39,10.39,0,0,1-1,7.85,12.33,12.33,0,0,1,7.75,8.14,13,13,0,0,1-2.06,11.27,11.86,11.86,0,0,1,5.31,9.18,12.25,12.25,0,0,1-4.2,9.87c2.74,1.39,5.33,9-2.26,14.35,0,0,9.45,8-.94,20.87-5,6.19-5.18,6.54-9.72,17.34-1.19,2.82-2,4.33-4.52,4.68-1.86.25-3.4-1-4.42-2.64-3.12-4.91-5-7.44-11.36-11.88-3.61-2.52-6.83-5.16-9.1-9-2.57-4.32-1.43-10,1.42-12.46a9.87,9.87,0,0,1-8.7-5.41c-1.45-2.94-1.26-6.84,1.3-8.88-4.9-.84-9.63-7.72-9-12.81a12.73,12.73,0,0,1,6.38-9.49C3.65,81.88.81,78.5.7,75c-.15-4.68,2.63-10.15,8.82-11.1C7,62.39,4.46,57.87,6.1,54A8.29,8.29,0,0,1,15,49s-.53-15.52,11.27-17.32C35.86,30.17,41.55,37.76,43.18,50Z"/><path class="cls-5" d="M29.3,55s1.7,82.6,6.48,104.4c5.69,25.92,24.09,41.77,24.09,41.77h3.41V178.49s-16.9-15.9-22.14-44.79C37.23,112.08,29.3,55,29.3,55Z"/><polygon class="cls-5" points="17.57 67.21 32.38 78.44 32.39 78.45 29.82 78.8 40.35 65.23 32.68 80.61 31.85 82.27 30.11 80.95 30.1 80.94 17.57 67.21"/><path class="cls-5" d="M14.6,84.76c1.77.76,3.44,1.66,5.13,2.55s3.31,1.85,4.92,2.84c3.24,2,6.38,4,9.47,6.21l-2.29.35c1.15-1.41,2.25-2.86,3.43-4.25s2.34-2.79,3.57-4.14,2.46-2.7,3.73-4,2.58-2.6,4-3.82c-.83,1.66-1.77,3.23-2.71,4.81s-1.93,3.11-3,4.61-2.07,3-3.12,4.49-2.18,2.92-3.26,4.38l-1,1.28-1.34-.94C29.09,97,26,94.73,23.1,92.36c-1.48-1.18-2.92-2.4-4.36-3.65S15.92,86.16,14.6,84.76Z"/><path class="cls-5" d="M17.24,105.73c1.65.43,3.23,1,4.82,1.53s3.14,1.16,4.68,1.82,3.06,1.32,4.59,2,3,1.41,4.51,2.15l-2,.41c1.14-1.36,2.31-2.69,3.49-4s2.4-2.61,3.66-3.87,2.52-2.51,3.82-3.73,2.65-2.4,4.09-3.5c-.85,1.6-1.83,3.1-2.8,4.6s-2,2.94-3.07,4.37-2.16,2.82-3.23,4.23-2.24,2.75-3.4,4.09l-.87,1-1.17-.6c-1.48-.76-3-1.53-4.41-2.35s-2.91-1.62-4.33-2.51-2.84-1.76-4.24-2.69S18.56,106.8,17.24,105.73Z"/><path class="cls-5" d="M21.71,122.62c1.45.53,2.85,1.16,4.23,1.8s2.74,1.32,4.07,2,2.66,1.44,4,2.21,2.61,1.53,3.88,2.34l-2.18.32c2-2.36,4.07-4.61,6.25-6.79,1.1-1.08,2.23-2.14,3.39-3.16A45.19,45.19,0,0,1,49,118.45a45.09,45.09,0,0,1-2.35,4.06c-.84,1.31-1.72,2.58-2.63,3.82-1.83,2.48-3.75,4.89-5.79,7.18l-1,1.1-1.2-.79c-1.26-.83-2.51-1.68-3.74-2.56s-2.46-1.76-3.66-2.69-2.38-1.88-3.55-2.86S22.79,123.73,21.71,122.62Z"/><path class="cls-6" d="M83.38,50c.16-1.21-6.32-4.08-8.4,2.38a10.38,10.38,0,0,0,1,7.85,12.33,12.33,0,0,0-7.75,8.14,13,13,0,0,0,2.06,11.27A11.86,11.86,0,0,0,65,88.79a12.25,12.25,0,0,0,4.2,9.87c-2.74,1.39-5.33,9,2.26,14.35,0,0-9.45,8,.94,20.87,5,6.19,5.18,6.54,9.72,17.34,1.19,2.82,2,4.33,4.52,4.68,1.86.25,3.4-1,4.42-2.64,3.12-4.91,5-7.44,11.36-11.88,3.61-2.52,6.83-5.16,9.1-9,2.57-4.32,1.43-10-1.42-12.46a9.87,9.87,0,0,0,8.7-5.41c1.45-2.94,1.26-6.84-1.3-8.88,4.9-.84,9.63-7.72,9-12.81a12.73,12.73,0,0,0-6.38-9.49c2.79-1.49,5.63-4.88,5.74-8.42.15-4.68-2.63-10.15-8.82-11.1,2.51-1.46,5.06-6,3.42-9.9a8.29,8.29,0,0,0-8.91-5s.53-15.52-11.27-17.32C90.71,30.17,85,37.76,83.38,50Z"/><path class="cls-5" d="M97.26,55s-1.7,82.6-6.48,104.4c-5.69,25.92-24.09,41.77-24.09,41.77H63.28V178.49s16.9-15.9,22.14-44.79C89.34,112.08,97.26,55,97.26,55Z"/><polygon class="cls-5" points="108.99 67.21 96.47 80.94 96.45 80.95 94.71 82.27 93.88 80.61 86.21 65.23 96.74 78.8 94.17 78.45 94.18 78.44 108.99 67.21"/><path class="cls-5" d="M112,84.76c-1.32,1.4-2.74,2.67-4.15,3.94s-2.88,2.47-4.36,3.65c-2.94,2.37-6,4.61-9.08,6.76l-1.34.94-1-1.28c-1.08-1.46-2.21-2.89-3.26-4.38s-2.12-3-3.12-4.49-2-3.06-3-4.61S80.87,82.14,80,80.48c1.4,1.22,2.69,2.52,4,3.82s2.53,2.65,3.73,4,2.39,2.75,3.57,4.14,2.28,2.84,3.43,4.25l-2.29-.35c3.09-2.17,6.23-4.26,9.47-6.21,1.61-1,3.26-1.92,4.92-2.84S110.2,85.53,112,84.76Z"/><path class="cls-5" d="M109.32,105.73c-1.32,1.07-2.71,2-4.09,3s-2.8,1.84-4.24,2.69-2.88,1.68-4.33,2.51-2.93,1.59-4.41,2.35l-1.17.6-.87-1c-1.16-1.34-2.28-2.71-3.4-4.09s-2.2-2.79-3.23-4.23-2.07-2.89-3.07-4.37-1.95-3-2.8-4.6c1.45,1.1,2.76,2.3,4.09,3.5s2.58,2.46,3.82,3.73,2.44,2.58,3.66,3.87,2.35,2.65,3.49,4l-2-.41c1.49-.74,3-1.47,4.51-2.15s3-1.38,4.59-2,3.11-1.24,4.68-1.82S107.68,106.16,109.32,105.73Z"/><path class="cls-5" d="M104.86,122.62c-1.09,1.1-2.23,2.11-3.39,3.1s-2.34,2-3.55,2.86-2.42,1.82-3.66,2.69-2.48,1.73-3.74,2.56l-1.2.79-1-1.1c-2-2.3-4-4.71-5.8-7.18-.91-1.25-1.79-2.52-2.63-3.82a45.2,45.2,0,0,1-2.35-4.06,45.15,45.15,0,0,1,3.67,2.92c1.17,1,2.29,2.08,3.39,3.16,2.18,2.18,4.28,4.43,6.26,6.79L88.7,131c1.28-.81,2.57-1.59,3.88-2.34s2.62-1.51,4-2.21,2.7-1.38,4.07-2S103.4,123.15,104.86,122.62Z"/></g></g></svg>