<svg xmlns="http://www.w3.org/2000/svg" viewBox="0 0 111.19 116.29"><defs><style>.cls-1{fill:#e12727;}.cls-2{fill:#e55d42;}.cls-3{fill:#c32120;}.cls-4{fill:#00873e;}.cls-5{fill:#007b38;}</style></defs><title>tomato</title><g id="Layer_2" data-name="Layer 2"><g id="Layer_1-2" data-name="Layer 1"><path class="cls-1" d="M99.36,35.07C90.79,25.24,76,20.83,63.61,25.38c-2.62,1-13.41,1-16,0-12.36-4.55-27.18-.14-35.75,9.69C1.65,46.74-1.53,62.35.65,77.06c2.77,18.7,13.21,31.52,32.56,37.28,10.8,3.21,15,1.49,22.39,1.49s11.59,1.72,22.39-1.49c19.35-5.76,29.79-18.57,32.56-37.28C112.71,62.35,109.54,46.74,99.36,35.07Z"/><circle class="cls-2" cx="28.06" cy="50.56" r="10.94"/><path class="cls-3" d="M99.36,35.07C90.79,25.24,76,20.83,63.61,25.38c-2.62,1-13.41,1-16,0a30.23,30.23,0,0,0-12.69-1.69c7.05,1.54,7.3,10.47,29.41,8.83,20.55-1.52,35.72,29,24,54.1-7.26,15.6-32,26.16-64.58,24a56.41,56.41,0,0,0,9.46,3.74c10.8,3.21,15,1.49,22.39,1.49s11.59,1.72,22.39-1.49c19.35-5.76,29.79-18.57,32.55-37.28C112.71,62.35,109.54,46.74,99.36,35.07Z"/><path class="cls-4" d="M55.19,20.7c-2-5.14-7.09-8.25-12.6-8.8,2.65,2.55,4.58,4.73,5.47,9.18-2.89-1.62-10.69-2.8-15,.25,5.7.64,8.86,1.91,12.17,5.73a10.25,10.25,0,0,0-2.8,4.52,24.9,24.9,0,0,0,.17,5.56c3.52-5,11.92-2.44,12.3-7.66,0,0,8.66,1.65,12,7.64.64-7.89-3.18-9.29-3.18-9.29,3.65-2.63,10.48-.76,14.38.45C75.56,24.52,70,21.33,64.89,22a12.26,12.26,0,0,1,9.9-6.21c-6.38-2.19-15.43-2.1-19.6,4.89Z"/><path class="cls-5" d="M59.38,0c-6.9,5.45-6.15,18.7-5.34,25a1.74,1.74,0,0,0,1.8-.14c0-3.84.31-9.82,1.74-13.82,2.05-5.77,5.29-7.51,5.29-7.51A3.23,3.23,0,0,0,59.38,0Z"/></g></g></svg>